<?xml version="1.0" encoding="UTF-8" standalone="no"?>
<svg
   width="2380.95mm"
   height="2380.95mm"
   viewBox="0 0 6750 6750"
   version="1.1"
   id="svg1"
   sodipodi:docname="Background Diffusion.svg"
   inkscape:version="1.3.2 (091e20e, 2023-11-25, custom)"
   xmlns:inkscape="http://www.inkscape.org/namespaces/inkscape"
   xmlns:sodipodi="http://sodipodi.sourceforge.net/DTD/sodipodi-0.dtd"
   xmlns:xlink="http://www.w3.org/1999/xlink"
   xmlns="http://www.w3.org/2000/svg"
   xmlns:svg="http://www.w3.org/2000/svg">
  <defs
     id="defs1">
    <linearGradient
       id="linearGradient1"
       inkscape:collect="always">
      <stop
         style="stop-color:#ffffff;stop-opacity:0.93333334;"
         offset="0"
         id="stop1" />
      <stop
         style="stop-color:#ffffff;stop-opacity:0;"
         offset="0.72164947"
         id="stop2" />
    </linearGradient>
    <radialGradient
       inkscape:collect="always"
       xlink:href="#linearGradient1"
       id="radialGradient2"
       cx="3378.555"
       cy="3366.58"
       fx="3378.555"
       fy="3366.58"
       r="2914.6351"
       gradientTransform="matrix(1,0,0,0.91863645,0,273.91691)"
       gradientUnits="userSpaceOnUse" />
  </defs>
  <sodipodi:namedview
     id="namedview1"
     pagecolor="#ffffff"
     bordercolor="#000000"
     borderopacity="0.25"
     inkscape:showpageshadow="2"
     inkscape:pageopacity="0.0"
     inkscape:pagecheckerboard="0"
     inkscape:deskcolor="#d1d1d1"
     inkscape:document-units="mm"
     inkscape:zoom="0.090344717"
     inkscape:cx="4493.8986"
     inkscape:cy="4499.433"
     inkscape:window-width="1920"
     inkscape:window-height="1009"
     inkscape:window-x="-8"
     inkscape:window-y="-8"
     inkscape:window-maximized="1"
     inkscape:current-layer="svg1" />
  <path
     id="Selection"
     fill="none"
     stroke="black"
     stroke-width="1"
     d="M 3223.00,689.59            C 3223.00,689.59 3334.00,689.59 3334.00,689.59              3334.00,689.59 3390.00,691.00 3390.00,691.00              3390.00,691.00 3423.17,692.16 3423.17,692.16              3423.17,692.16 3474.00,694.92 3474.00,694.92              3474.00,694.92 3566.00,701.83 3566.00,701.83              3566.00,701.83 3606.01,705.31 3606.01,705.31              3606.01,705.31 3637.72,709.18 3637.72,709.18              3637.72,709.18 3644.01,709.18 3644.01,709.18              3644.01,709.18 3668.00,712.71 3668.00,712.71              3668.00,712.71 3676.00,713.29 3676.00,713.29              3676.00,713.29 3702.00,716.91 3702.00,716.91              3702.00,716.91 3710.00,717.46 3710.00,717.46              3710.00,717.46 3724.00,719.91 3724.00,719.91              3724.00,719.91 3733.00,720.76 3733.00,720.76              3733.00,720.76 3750.00,723.71 3750.00,723.71              3750.00,723.71 3758.00,724.43 3758.00,724.43              3758.00,724.43 3779.00,728.16 3779.00,728.16              3779.00,728.16 3788.00,728.84 3788.00,728.84              3788.00,728.84 3835.00,737.58 3835.00,737.58              3835.00,737.58 3849.00,739.29 3849.00,739.29              3849.00,739.29 3868.00,742.61 3868.00,742.61              3868.00,742.61 3882.00,745.34 3882.00,745.34              3882.00,745.34 3892.00,748.19 3892.00,748.19              3892.00,748.19 3940.00,757.02 3940.00,757.02              3940.00,757.02 3949.00,759.66 3949.00,759.66              3949.00,759.66 3966.00,762.80 3966.00,762.80              3966.00,762.80 3983.00,766.99 3983.00,766.99              3983.00,766.99 3997.91,769.83 3997.91,769.83              3997.91,769.83 4005.04,772.16 4005.04,772.16              4005.04,772.16 4019.00,774.84 4019.00,774.84              4019.00,774.84 4054.00,783.34 4054.00,783.34              4054.00,783.34 4090.00,792.91 4090.00,792.91              4090.00,792.91 4175.00,815.97 4175.00,815.97              4612.69,943.07 5030.11,1168.32 5370.20,1472.45              5492.63,1581.93 5606.95,1700.69 5709.28,1829.28              5709.28,1829.28 5734.42,1861.83 5734.42,1861.83              5734.42,1861.83 5790.58,1936.04 5790.58,1936.04              5790.58,1936.04 5805.59,1957.99 5805.59,1957.99              5805.59,1957.99 5811.98,1966.09 5811.98,1966.09              5811.98,1966.09 5827.02,1988.00 5827.02,1988.00              5827.02,1988.00 5844.25,2013.00 5844.25,2013.00              5844.25,2013.00 5848.95,2021.00 5848.95,2021.00              5848.95,2021.00 5863.33,2042.00 5863.33,2042.00              5863.33,2042.00 5897.19,2095.00 5897.19,2095.00              5897.19,2095.00 5914.59,2124.00 5914.59,2124.00              5945.34,2174.57 5974.82,2226.31 6001.84,2279.00              6065.01,2402.18 6119.70,2529.63 6163.49,2661.00              6163.49,2661.00 6178.19,2708.00 6178.19,2708.00              6205.38,2793.32 6226.71,2880.22 6244.40,2968.00              6257.91,3035.05 6269.34,3102.93 6276.17,3171.00              6276.17,3171.00 6281.33,3216.00 6281.33,3216.00              6285.08,3252.17 6287.46,3288.68 6289.04,3325.00              6289.04,3325.00 6290.78,3355.96 6290.78,3355.96              6290.78,3355.96 6292.00,3398.00 6292.00,3398.00              6292.00,3398.00 6292.69,3451.00 6292.69,3451.00              6292.69,3451.00 6292.00,3507.00 6292.00,3507.00              6292.00,3507.00 6290.00,3568.00 6290.00,3568.00              6290.00,3568.00 6289.03,3585.00 6289.03,3585.00              6289.03,3585.00 6281.66,3688.00 6281.66,3688.00              6281.66,3688.00 6276.50,3732.00 6276.50,3732.00              6276.50,3732.00 6276.50,3739.00 6276.50,3739.00              6276.50,3739.00 6274.89,3747.00 6274.89,3747.00              6274.89,3747.00 6271.91,3774.00 6271.91,3774.00              6271.91,3774.00 6270.07,3783.83 6270.07,3783.83              6270.07,3783.83 6269.55,3792.00 6269.55,3792.00              6269.55,3792.00 6266.84,3807.00 6266.84,3807.00              6266.84,3807.00 6266.16,3816.00 6266.16,3816.00              6266.16,3816.00 6262.08,3838.00 6262.08,3838.00              6262.08,3838.00 6260.96,3849.00 6260.96,3849.00              6260.96,3849.00 6250.61,3905.00 6250.61,3905.00              6250.61,3905.00 6242.54,3949.00 6242.54,3949.00              6242.54,3949.00 6239.84,3958.00 6239.84,3958.00              6239.84,3958.00 6235.54,3981.00 6235.54,3981.00              6235.54,3981.00 6233.17,3989.00 6233.17,3989.00              6233.17,3989.00 6229.66,4007.00 6229.66,4007.00              6229.66,4007.00 6223.09,4032.00 6223.09,4032.00              6223.09,4032.00 6220.91,4043.00 6220.91,4043.00              6220.91,4043.00 6189.61,4156.72 6189.61,4156.72              6164.17,4241.67 6133.70,4325.39 6098.96,4407.01              5980.55,4685.26 5819.19,4931.37 5612.34,5152.01              5491.81,5280.58 5368.85,5386.99 5227.00,5491.25              5227.00,5491.25 5204.00,5507.04 5204.00,5507.04              5204.00,5507.04 5190.00,5517.58 5190.00,5517.58              5190.00,5517.58 5152.00,5543.66 5152.00,5543.66              5152.00,5543.66 5139.00,5551.67 5139.00,5551.67              5139.00,5551.67 5117.00,5566.77 5117.00,5566.77              4999.15,5643.03 4879.21,5708.62 4752.00,5767.97              4752.00,5767.97 4660.00,5808.23 4660.00,5808.23              4614.76,5827.07 4569.28,5845.33 4523.17,5861.99              4340.01,5928.15 4150.46,5976.58 3958.00,6006.27              3870.14,6019.83 3781.74,6030.71 3693.00,6036.08              3693.00,6036.08 3676.01,6037.68 3676.01,6037.68              3676.01,6037.68 3626.00,6040.07 3626.00,6040.07              3626.00,6040.07 3587.58,6041.81 3587.58,6041.81              3587.58,6041.81 3556.29,6042.81 3556.29,6042.81              3556.29,6042.81 3495.41,6043.57 3495.41,6043.57              3495.41,6043.57 3413.00,6043.57 3413.00,6043.57              3413.00,6043.57 3354.00,6041.79 3354.00,6041.79              3354.00,6041.79 3333.83,6040.84 3333.83,6040.84              3333.83,6040.84 3283.00,6038.08 3283.00,6038.08              3283.00,6038.08 3157.28,6027.82 3157.28,6027.82              3157.28,6027.82 3150.99,6027.82 3150.99,6027.82              3150.99,6027.82 3119.28,6023.82 3119.28,6023.82              3119.28,6023.82 3112.99,6023.82 3112.99,6023.82              3112.99,6023.82 3090.00,6020.31 3090.00,6020.31              3090.00,6020.31 3083.00,6020.31 3083.00,6020.31              3083.00,6020.31 3054.28,6015.75 3054.28,6015.75              3054.28,6015.75 3047.00,6015.75 3047.00,6015.75              3047.00,6015.75 3034.09,6013.11 3034.09,6013.11              3034.09,6013.11 3025.99,6012.55 3025.99,6012.55              3025.99,6012.55 3009.00,6009.59 3009.00,6009.59              3009.00,6009.59 2999.00,6008.57 2999.00,6008.57              2999.00,6008.57 2978.00,6004.84 2978.00,6004.84              2978.00,6004.84 2967.00,6003.75 2967.00,6003.75              2967.00,6003.75 2917.00,5994.44 2917.00,5994.44              2917.00,5994.44 2903.00,5992.92 2903.00,5992.92              2903.00,5992.92 2876.00,5987.83 2876.00,5987.83              2876.00,5987.83 2864.00,5984.61 2864.00,5984.61              2864.00,5984.61 2818.00,5976.19 2818.00,5976.19              2818.00,5976.19 2807.00,5973.12 2807.00,5973.12              2807.00,5973.12 2786.00,5969.18 2786.00,5969.18              2786.00,5969.18 2776.00,5966.43 2776.00,5966.43              2776.00,5966.43 2759.09,5963.17 2759.09,5963.17              2759.09,5963.17 2751.96,5960.84 2751.96,5960.84              2751.96,5960.84 2738.00,5958.16 2738.00,5958.16              2738.00,5958.16 2697.00,5947.70 2697.00,5947.70              2697.00,5947.70 2688.00,5945.91 2688.00,5945.91              2688.00,5945.91 2592.17,5919.93 2592.17,5919.93              2446.81,5878.05 2304.05,5825.86 2166.00,5763.91              2104.68,5736.38 2044.39,5706.39 1985.00,5674.94              1631.64,5487.84 1319.60,5236.36 1066.58,4926.28              1066.58,4926.28 1012.02,4857.83 1012.02,4857.83              900.75,4711.78 808.73,4562.43 727.13,4397.96              700.05,4343.39 675.95,4287.33 652.86,4231.00              584.19,4063.49 535.69,3894.10 503.58,3716.00              496.62,3677.43 490.56,3638.87 485.71,3600.00              485.71,3600.00 482.76,3579.96 482.76,3579.96              482.76,3579.96 477.77,3532.09 477.77,3532.09              477.77,3532.09 471.94,3467.99 471.94,3467.99              471.94,3467.99 468.19,3411.58 468.19,3411.58              468.19,3411.58 467.29,3399.09 467.29,3399.09              467.29,3399.09 466.19,3367.58 466.19,3367.58              466.19,3367.58 464.42,3277.00 464.42,3277.00              464.42,3277.00 466.14,3187.99 466.14,3187.99              466.14,3187.99 468.42,3143.00 468.42,3143.00              468.42,3143.00 473.41,3072.00 473.41,3072.00              473.41,3072.00 475.51,3045.00 475.51,3045.00              475.51,3045.00 479.34,3008.00 479.34,3008.00              479.34,3008.00 480.83,2999.00 480.83,2999.00              480.83,2999.00 482.70,2979.00 482.70,2979.00              482.70,2979.00 486.91,2950.00 486.91,2950.00              486.91,2950.00 487.46,2942.00 487.46,2942.00              487.46,2942.00 490.57,2925.00 490.57,2925.00              490.57,2925.00 491.44,2915.00 491.44,2915.00              491.44,2915.00 495.56,2893.00 495.56,2893.00              495.56,2893.00 496.43,2883.00 496.43,2883.00              496.43,2883.00 504.58,2839.00 504.58,2839.00              504.58,2839.00 514.95,2783.09 514.95,2783.09              514.95,2783.09 517.60,2774.00 517.60,2774.00              517.60,2774.00 521.62,2752.04 521.62,2752.04              521.62,2752.04 524.37,2742.99 524.37,2742.99              524.37,2742.99 527.51,2726.00 527.51,2726.00              527.51,2726.00 529.71,2719.00 529.71,2719.00              529.71,2719.00 531.83,2708.09 531.83,2708.09              531.83,2708.09 534.16,2700.96 534.16,2700.96              534.16,2700.96 536.04,2691.00 536.04,2691.00              536.04,2691.00 542.30,2668.00 542.30,2668.00              542.30,2668.00 550.39,2636.28 550.39,2636.28              550.39,2636.28 581.65,2532.00 581.65,2532.00              637.78,2355.83 714.86,2186.65 808.94,2027.58              847.33,1962.66 888.40,1898.75 933.12,1838.00              933.12,1838.00 942.89,1824.00 942.89,1824.00              942.89,1824.00 957.03,1805.58 957.03,1805.58              957.03,1805.58 965.04,1794.00 965.04,1794.00              965.04,1794.00 979.35,1776.00 979.35,1776.00              1014.40,1730.53 1050.50,1686.23 1088.28,1643.00              1199.29,1515.97 1332.94,1391.85 1467.00,1289.50              1467.00,1289.50 1511.00,1255.92 1511.00,1255.92              1511.00,1255.92 1551.00,1227.57 1551.00,1227.57              1551.00,1227.57 1560.00,1220.58 1560.00,1220.58              1560.00,1220.58 1608.00,1187.46 1608.00,1187.46              1608.00,1187.46 1617.00,1182.15 1617.00,1182.15              1617.00,1182.15 1639.96,1166.42 1639.96,1166.42              1639.96,1166.42 1770.00,1086.71 1770.00,1086.71              1908.22,1006.52 2053.63,939.22 2203.00,882.75              2245.97,866.51 2289.35,851.72 2333.00,837.48              2333.00,837.48 2376.00,823.56 2376.00,823.56              2376.00,823.56 2396.00,817.97 2396.00,817.97              2396.00,817.97 2446.28,802.96 2446.28,802.96              2446.28,802.96 2455.00,801.08 2455.00,801.08              2455.00,801.08 2477.00,794.58 2477.00,794.58              2477.00,794.58 2538.83,778.69 2538.83,778.69              2538.83,778.69 2670.00,749.38 2670.00,749.38              2670.00,749.38 2683.00,747.20 2683.00,747.20              2683.00,747.20 2764.01,732.16 2764.01,732.16              2813.55,724.22 2863.20,716.66 2913.04,710.76              2969.17,704.12 3025.58,699.56 3081.96,695.35              3081.96,695.35 3153.00,691.93 3153.00,691.93              3153.00,691.93 3201.57,690.20 3201.57,690.20              3201.57,690.20 3223.00,689.59 3223.00,689.59 Z"
     style="fill:url(#radialGradient2);stroke:none" />
</svg>
