<?xml version="1.0" encoding="UTF-8" standalone="no"?>
<svg
   width="2380.95mm"
   height="2380.95mm"
   viewBox="0 0 6750 6750"
   version="1.1"
   id="svg1"
   sodipodi:docname="Far 3kpc Arm.svg"
   inkscape:version="1.3.2 (091e20e, 2023-11-25, custom)"
   xmlns:inkscape="http://www.inkscape.org/namespaces/inkscape"
   xmlns:sodipodi="http://sodipodi.sourceforge.net/DTD/sodipodi-0.dtd"
   xmlns="http://www.w3.org/2000/svg"
   xmlns:svg="http://www.w3.org/2000/svg">
  <defs
     id="defs1">
    <filter
       inkscape:collect="always"
       style="color-interpolation-filters:sRGB"
       id="filter1"
       x="-0.18467386"
       y="-0.1999314"
       width="1.3693477"
       height="1.3998628">
      <feGaussianBlur
         inkscape:collect="always"
         stdDeviation="85.422717"
         id="feGaussianBlur1" />
    </filter>
  </defs>
  <sodipodi:namedview
     id="namedview1"
     pagecolor="#ffffff"
     bordercolor="#000000"
     borderopacity="0.25"
     inkscape:showpageshadow="2"
     inkscape:pageopacity="0.0"
     inkscape:pagecheckerboard="0"
     inkscape:deskcolor="#d1d1d1"
     inkscape:document-units="mm"
     inkscape:zoom="0.25553345"
     inkscape:cx="3936.8623"
     inkscape:cy="4416.2516"
     inkscape:window-width="1920"
     inkscape:window-height="1009"
     inkscape:window-x="-8"
     inkscape:window-y="-8"
     inkscape:window-maximized="1"
     inkscape:current-layer="svg1" />
  <path
     id="Far 3kpc Arm"
     fill="none"
     stroke="black"
     stroke-width="1"
     d="M 3515.00,2867.21            C 3515.00,2867.21 3532.00,2867.21 3532.00,2867.21              3558.65,2867.00 3573.10,2869.54 3599.00,2874.39              3648.71,2883.70 3691.31,2893.69 3734.00,2922.98              3741.57,2928.17 3745.94,2930.72 3753.00,2937.17              3780.32,2962.14 3787.91,3006.66 3757.56,3032.71              3752.77,3036.81 3746.88,3040.24 3741.00,3042.54              3732.07,3046.03 3726.36,3046.11 3717.00,3046.00              3690.23,3045.68 3672.39,3024.44 3650.00,3013.25              3625.38,3000.94 3600.84,2996.45 3574.00,2991.92              3574.00,2991.92 3541.00,2987.00 3541.00,2987.00              3509.30,2986.63 3484.38,2993.03 3454.00,3000.63              3454.00,3000.63 3413.00,3011.02 3413.00,3011.02              3413.00,3011.02 3360.00,3031.40 3360.00,3031.40              3360.00,3031.40 3306.00,3052.45 3306.00,3052.45              3306.00,3052.45 3281.00,3063.72 3281.00,3063.72              3281.00,3063.72 3209.00,3093.25 3209.00,3093.25              3179.18,3108.16 3130.23,3141.56 3102.00,3161.28              3071.44,3182.64 3048.61,3195.65 3020.00,3221.16              2988.99,3248.82 2980.20,3262.88 2954.73,3293.00              2928.31,3324.24 2893.59,3366.05 2873.01,3401.00              2873.01,3401.00 2855.75,3434.00 2855.75,3434.00              2855.75,3434.00 2841.31,3463.00 2841.31,3463.00              2831.29,3484.81 2821.13,3511.88 2814.74,3535.00              2808.52,3557.53 2803.79,3586.62 2799.58,3610.00              2799.58,3610.00 2792.27,3650.00 2792.27,3650.00              2792.27,3650.00 2788.91,3684.00 2788.91,3684.00              2788.91,3684.00 2787.00,3707.00 2787.00,3707.00              2787.00,3707.00 2787.00,3729.00 2787.00,3729.00              2787.05,3758.08 2799.73,3800.39 2800.00,3823.00              2800.25,3844.49 2796.56,3861.55 2780.88,3877.49              2775.13,3883.34 2767.72,3887.19 2760.00,3889.74              2736.51,3897.51 2712.70,3889.12 2697.28,3869.99              2684.41,3854.00 2681.12,3832.61 2677.58,3813.00              2673.47,3790.29 2669.60,3768.04 2667.91,3745.00              2667.91,3745.00 2667.00,3733.00 2667.00,3733.00              2667.00,3733.00 2667.00,3705.00 2667.00,3705.00              2667.00,3705.00 2668.91,3681.00 2668.91,3681.00              2671.74,3639.67 2674.88,3624.04 2682.39,3584.00              2682.39,3584.00 2697.15,3510.00 2697.15,3510.00              2709.64,3462.60 2726.93,3422.64 2748.75,3379.00              2748.75,3379.00 2768.01,3342.00 2768.01,3342.00              2791.10,3302.48 2832.78,3250.13 2862.87,3215.00              2887.14,3186.66 2902.23,3165.15 2931.00,3139.17              2931.00,3139.17 2979.00,3099.42 2979.00,3099.42              2979.00,3099.42 3026.00,3067.58 3026.00,3067.58              3060.42,3043.22 3113.21,3007.24 3150.00,2988.26              3150.00,2988.26 3236.00,2952.14 3236.00,2952.14              3236.00,2952.14 3272.00,2936.45 3272.00,2936.45              3272.00,2936.45 3309.00,2922.40 3309.00,2922.40              3331.93,2913.06 3355.27,2902.79 3379.00,2895.72              3395.37,2890.84 3455.24,2876.45 3472.00,2873.42              3472.00,2873.42 3515.00,2867.21 3515.00,2867.21 Z"
     style="stroke:none;fill:#ffffff;fill-opacity:1;filter:url(#filter1)" />
</svg>
