<?xml version="1.0" encoding="UTF-8" standalone="no"?>
<svg
   width="2380.95mm"
   height="2380.95mm"
   viewBox="0 0 6750 6750"
   version="1.1"
   id="svg1"
   sodipodi:docname="Near 3kpc Arm.svg"
   inkscape:version="1.3.2 (091e20e, 2023-11-25, custom)"
   xmlns:inkscape="http://www.inkscape.org/namespaces/inkscape"
   xmlns:sodipodi="http://sodipodi.sourceforge.net/DTD/sodipodi-0.dtd"
   xmlns="http://www.w3.org/2000/svg"
   xmlns:svg="http://www.w3.org/2000/svg">
  <defs
     id="defs1">
    <filter
       inkscape:collect="always"
       style="color-interpolation-filters:sRGB"
       id="filter1"
       x="-0.17537134"
       y="-0.21211244"
       width="1.3507427"
       height="1.4242249">
      <feGaussianBlur
         inkscape:collect="always"
         stdDeviation="84.377205"
         id="feGaussianBlur1" />
    </filter>
  </defs>
  <sodipodi:namedview
     id="namedview1"
     pagecolor="#ffffff"
     bordercolor="#000000"
     borderopacity="0.25"
     inkscape:showpageshadow="2"
     inkscape:pageopacity="0.0"
     inkscape:pagecheckerboard="0"
     inkscape:deskcolor="#d1d1d1"
     inkscape:document-units="mm"
     inkscape:zoom="0.090344717"
     inkscape:cx="4493.8986"
     inkscape:cy="4499.433"
     inkscape:window-width="1920"
     inkscape:window-height="1009"
     inkscape:window-x="-8"
     inkscape:window-y="-8"
     inkscape:window-maximized="1"
     inkscape:current-layer="svg1" />
  <path
     id="Near 3kpc Arm"
     fill="none"
     stroke="black"
     stroke-width="1"
     d="M 3967.00,2850.43            C 3972.26,2849.90 3977.87,2850.99 3983.00,2852.24              4005.01,2857.58 4019.47,2876.32 4026.25,2897.00              4026.25,2897.00 4032.00,2923.00 4032.00,2923.00              4032.00,2923.00 4037.59,2951.00 4037.59,2951.00              4037.59,2951.00 4045.61,3009.00 4045.61,3009.00              4045.61,3009.00 4053.94,3051.00 4053.94,3051.00              4053.94,3051.00 4053.94,3060.00 4053.94,3060.00              4053.94,3060.00 4054.99,3070.99 4054.99,3070.99              4054.65,3093.40 4050.40,3115.98 4046.42,3138.00              4037.67,3186.55 4031.06,3216.49 4012.80,3263.00              4012.80,3263.00 3994.70,3306.00 3994.70,3306.00              3994.70,3306.00 3972.43,3347.00 3972.43,3347.00              3972.43,3347.00 3960.58,3369.00 3960.58,3369.00              3960.58,3369.00 3941.45,3401.00 3941.45,3401.00              3920.92,3435.63 3900.13,3470.43 3875.00,3502.00              3862.49,3517.71 3848.50,3532.09 3834.00,3545.96              3834.00,3545.96 3824.00,3555.01 3824.00,3555.01              3824.00,3555.01 3802.96,3575.09 3802.96,3575.09              3802.96,3575.09 3789.00,3588.83 3789.00,3588.83              3770.44,3605.62 3731.16,3635.54 3710.00,3648.95              3675.78,3670.62 3633.60,3686.39 3596.00,3701.45              3596.00,3701.45 3551.00,3720.19 3551.00,3720.19              3551.00,3720.19 3526.00,3729.05 3526.00,3729.05              3526.00,3729.05 3448.00,3754.72 3448.00,3754.72              3448.00,3754.72 3411.00,3765.12 3411.00,3765.12              3411.00,3765.12 3335.00,3777.43 3335.00,3777.43              3335.00,3777.43 3253.00,3793.00 3253.00,3793.00              3236.77,3796.36 3202.38,3803.82 3187.00,3804.00              3187.00,3804.00 3166.00,3805.00 3166.00,3805.00              3166.00,3805.00 3153.00,3804.08 3153.00,3804.08              3123.24,3802.41 3094.28,3795.71 3065.00,3790.42              3065.00,3790.42 3030.00,3783.45 3030.00,3783.45              3000.97,3777.63 2972.79,3770.63 2949.00,3751.99              2926.77,3734.57 2903.22,3702.95 2900.92,3674.00              2900.67,3670.96 2900.09,3669.13 2900.32,3666.00              2902.73,3634.00 2923.97,3610.43 2957.00,3610.01              2973.81,3609.80 2991.36,3617.66 3002.71,3630.04              3010.97,3639.04 3018.72,3653.46 3029.00,3658.73              3039.36,3664.03 3068.39,3668.91 3081.00,3671.26              3102.73,3675.31 3146.76,3684.59 3167.00,3684.99              3171.97,3685.08 3173.43,3684.61 3178.00,3683.94              3178.00,3683.94 3186.00,3683.94 3186.00,3683.94              3186.00,3683.94 3223.00,3676.60 3223.00,3676.60              3223.00,3676.60 3308.00,3660.41 3308.00,3660.41              3308.00,3660.41 3341.00,3655.13 3341.00,3655.13              3341.00,3655.13 3388.00,3647.11 3388.00,3647.11              3419.16,3639.32 3476.61,3619.96 3507.00,3608.19              3507.00,3608.19 3540.00,3594.45 3540.00,3594.45              3571.45,3581.86 3617.00,3565.01 3645.00,3547.58              3656.25,3540.57 3691.37,3514.48 3701.00,3505.83              3701.00,3505.83 3731.00,3477.09 3731.00,3477.09              3752.82,3456.76 3769.35,3442.12 3787.76,3418.00              3798.85,3403.48 3821.81,3367.42 3831.55,3351.00              3831.55,3351.00 3841.20,3334.00 3841.20,3334.00              3862.83,3298.18 3886.55,3258.23 3900.95,3219.00              3900.95,3219.00 3918.12,3168.00 3918.12,3168.00              3918.12,3168.00 3927.45,3121.00 3927.45,3121.00              3931.31,3101.68 3935.34,3082.84 3933.91,3063.00              3933.91,3063.00 3926.25,3023.00 3926.25,3023.00              3926.25,3023.00 3921.72,2988.00 3921.72,2988.00              3921.72,2988.00 3916.75,2958.00 3916.75,2958.00              3914.51,2945.15 3909.71,2925.19 3910.41,2912.49              3911.68,2889.56 3921.19,2866.85 3943.00,2856.32              3954.07,2850.98 3955.97,2851.98 3967.00,2850.43 Z"
     style="filter:url(#filter1);stroke:none;fill:#ffffff;fill-opacity:1" />
</svg>
