<?xml version="1.0" encoding="UTF-8" standalone="no"?>
<svg
   width="2380.95mm"
   height="2380.95mm"
   viewBox="0 0 6750 6750"
   version="1.1"
   id="svg1"
   sodipodi:docname="Norma Arm.svg"
   inkscape:version="1.3.2 (091e20e, 2023-11-25, custom)"
   xmlns:inkscape="http://www.inkscape.org/namespaces/inkscape"
   xmlns:sodipodi="http://sodipodi.sourceforge.net/DTD/sodipodi-0.dtd"
   xmlns="http://www.w3.org/2000/svg"
   xmlns:svg="http://www.w3.org/2000/svg">
  <defs
     id="defs1">
    <filter
       inkscape:collect="always"
       style="color-interpolation-filters:sRGB"
       id="filter1"
       x="-0.12289792"
       y="-0.096323495"
       width="1.2457958"
       height="1.192647">
      <feGaussianBlur
         inkscape:collect="always"
         stdDeviation="76.099972"
         id="feGaussianBlur1" />
    </filter>
  </defs>
  <sodipodi:namedview
     id="namedview1"
     pagecolor="#ffffff"
     bordercolor="#000000"
     borderopacity="0.25"
     inkscape:showpageshadow="2"
     inkscape:pageopacity="0.0"
     inkscape:pagecheckerboard="0"
     inkscape:deskcolor="#d1d1d1"
     inkscape:document-units="mm"
     inkscape:zoom="0.063883362"
     inkscape:cx="3005.4774"
     inkscape:cy="3983.8229"
     inkscape:window-width="1920"
     inkscape:window-height="1009"
     inkscape:window-x="-8"
     inkscape:window-y="-8"
     inkscape:window-maximized="1"
     inkscape:current-layer="svg1" />
  <path
     id="Norma Arm"
     fill="none"
     stroke="black"
     stroke-width="1"
     d="M 3173.96,2101.89            C 3173.96,2101.89 3220.00,2101.89 3220.00,2101.89              3220.00,2101.89 3231.00,2102.91 3231.00,2102.91              3231.00,2102.91 3283.91,2107.98 3283.91,2107.98              3283.91,2107.98 3398.00,2122.43 3398.00,2122.43              3398.00,2122.43 3454.00,2133.20 3454.00,2133.20              3454.00,2133.20 3564.00,2155.55 3564.00,2155.55              3589.36,2160.62 3615.16,2165.16 3640.00,2172.42              3661.19,2178.62 3681.67,2187.04 3702.00,2195.58              3702.00,2195.58 3740.00,2210.99 3740.00,2210.99              3762.66,2220.34 3785.44,2228.47 3807.00,2240.31              3807.00,2240.31 3820.00,2248.58 3820.00,2248.58              3820.00,2248.58 3859.00,2274.33 3859.00,2274.33              3880.92,2288.94 3916.80,2311.64 3936.00,2327.26              3936.00,2327.26 3975.00,2362.91 3975.00,2362.91              3975.00,2362.91 4001.00,2387.91 4001.00,2387.91              4001.00,2387.91 4019.96,2406.00 4019.96,2406.00              4019.96,2406.00 4072.17,2464.00 4072.17,2464.00              4096.82,2491.39 4119.48,2520.01 4142.21,2549.00              4153.03,2562.80 4174.42,2589.21 4182.80,2603.00              4190.89,2616.34 4196.84,2629.89 4203.31,2644.00              4203.31,2644.00 4237.08,2718.00 4237.08,2718.00              4252.56,2751.96 4265.24,2786.97 4278.05,2822.00              4284.36,2839.26 4295.22,2864.86 4298.99,2882.00              4301.19,2892.03 4303.98,2908.93 4304.00,2919.00              4304.00,2919.00 4306.00,2958.00 4306.00,2958.00              4306.00,2958.00 4307.00,2968.00 4307.00,2968.00              4307.00,2968.00 4307.00,2979.00 4307.00,2979.00              4307.00,2979.00 4308.00,2994.00 4308.00,2994.00              4308.00,2994.00 4310.00,3025.00 4310.00,3025.00              4310.00,3025.00 4310.00,3052.00 4310.00,3052.00              4309.79,3069.49 4301.81,3106.21 4298.42,3125.00              4298.42,3125.00 4276.66,3239.00 4276.66,3239.00              4276.66,3239.00 4257.66,3329.00 4257.66,3329.00              4257.66,3329.00 4248.85,3369.00 4248.85,3369.00              4242.66,3392.19 4230.13,3423.91 4221.42,3447.00              4221.42,3447.00 4195.69,3513.00 4195.69,3513.00              4195.69,3513.00 4171.86,3556.00 4171.86,3556.00              4171.86,3556.00 4149.80,3593.00 4149.80,3593.00              4134.89,3615.37 4121.09,3628.68 4103.09,3648.00              4103.09,3648.00 4076.04,3677.00 4076.04,3677.00              4076.04,3677.00 3998.00,3759.99 3998.00,3759.99              3985.10,3772.57 3965.88,3785.78 3951.00,3796.42              3951.00,3796.42 3886.00,3842.71 3886.00,3842.71              3886.00,3842.71 3815.00,3892.34 3815.00,3892.34              3815.00,3892.34 3771.00,3920.82 3771.00,3920.82              3750.95,3931.71 3724.54,3940.84 3703.00,3949.45              3703.00,3949.45 3650.00,3970.31 3650.00,3970.31              3650.00,3970.31 3617.00,3980.72 3617.00,3980.72              3617.00,3980.72 3584.00,3989.55 3584.00,3989.55              3572.92,3991.77 3558.23,3993.95 3547.00,3994.00              3547.00,3994.00 3520.00,3995.00 3520.00,3995.00              3520.00,3995.00 3505.00,3996.00 3505.00,3996.00              3505.00,3996.00 3490.00,3996.00 3490.00,3996.00              3490.00,3996.00 3477.00,3997.04 3477.00,3997.04              3477.00,3997.04 3462.00,3997.04 3462.00,3997.04              3462.00,3997.04 3450.00,3998.00 3450.00,3998.00              3450.00,3998.00 3323.00,3998.00 3323.00,3998.00              3323.00,3998.00 3311.00,3997.09 3311.00,3997.09              3290.56,3995.68 3270.97,3990.83 3251.00,3986.42              3251.00,3986.42 3152.00,3964.45 3152.00,3964.45              3152.00,3964.45 3098.00,3952.66 3098.00,3952.66              3098.00,3952.66 3019.00,3935.23 3019.00,3935.23              2985.70,3927.41 2961.90,3924.75 2930.00,3909.70              2910.17,3900.35 2874.33,3879.85 2857.00,3866.87              2847.11,3859.47 2836.08,3851.07 2830.03,3840.00              2815.59,3813.56 2826.63,3760.43 2863.00,3760.00              2863.00,3760.00 2869.00,3760.00 2869.00,3760.00              2881.30,3760.15 2892.81,3765.61 2904.00,3770.10              2904.00,3770.10 2953.00,3793.30 2953.00,3793.30              2965.04,3799.66 2978.11,3807.15 2991.00,3811.48              2991.00,3811.48 3056.00,3826.42 3056.00,3826.42              3056.00,3826.42 3193.00,3856.42 3193.00,3856.42              3193.00,3856.42 3280.00,3876.00 3280.00,3876.00              3296.99,3879.52 3313.50,3883.97 3331.00,3883.85              3331.00,3883.85 3417.00,3883.85 3417.00,3883.85              3417.00,3883.85 3429.09,3883.85 3429.09,3883.85              3429.09,3883.85 3455.00,3883.00 3455.00,3883.00              3455.00,3883.00 3475.00,3882.00 3475.00,3882.00              3475.00,3882.00 3506.00,3881.00 3506.00,3881.00              3506.00,3881.00 3524.00,3880.00 3524.00,3880.00              3534.74,3879.92 3545.36,3879.35 3556.00,3877.71              3578.63,3874.21 3617.14,3859.94 3639.00,3851.20              3661.49,3842.20 3699.17,3828.44 3719.00,3817.69              3719.00,3817.69 3756.00,3793.02 3756.00,3793.02              3756.00,3793.02 3827.00,3743.15 3827.00,3743.15              3849.48,3726.83 3899.02,3693.48 3917.00,3677.71              3917.00,3677.71 3977.17,3614.00 3977.17,3614.00              3977.17,3614.00 3986.91,3604.00 3986.91,3604.00              3986.91,3604.00 4030.17,3557.00 4030.17,3557.00              4030.17,3557.00 4047.33,3538.00 4047.33,3538.00              4055.12,3528.06 4061.18,3516.84 4067.60,3506.00              4067.60,3506.00 4085.74,3475.00 4085.74,3475.00              4095.96,3455.20 4101.66,3438.57 4109.42,3418.00              4109.42,3418.00 4136.29,3344.00 4136.29,3344.00              4136.29,3344.00 4146.42,3300.00 4146.42,3300.00              4146.42,3300.00 4162.45,3224.00 4162.45,3224.00              4162.45,3224.00 4185.42,3104.00 4185.42,3104.00              4188.02,3089.59 4194.98,3057.80 4195.00,3045.00              4195.00,3045.00 4195.00,3025.00 4195.00,3025.00              4195.00,3025.00 4194.00,3006.00 4194.00,3006.00              4194.00,3006.00 4193.00,2996.00 4193.00,2996.00              4193.00,2996.00 4193.00,2985.00 4193.00,2985.00              4193.00,2985.00 4192.00,2972.00 4192.00,2972.00              4192.00,2972.00 4191.00,2957.00 4191.00,2957.00              4191.00,2957.00 4190.00,2937.00 4190.00,2937.00              4189.95,2926.88 4188.68,2916.86 4186.35,2907.00              4184.00,2897.09 4179.06,2885.64 4175.42,2876.00              4175.42,2876.00 4158.05,2829.00 4158.05,2829.00              4158.05,2829.00 4140.58,2784.00 4140.58,2784.00              4140.58,2784.00 4113.31,2724.00 4113.31,2724.00              4113.31,2724.00 4085.80,2666.00 4085.80,2666.00              4076.24,2650.17 4049.24,2617.44 4036.42,2601.00              4015.67,2574.36 3993.75,2549.09 3971.17,2524.00              3971.17,2524.00 3938.58,2488.17 3938.58,2488.17              3938.58,2488.17 3900.00,2450.91 3900.00,2450.91              3900.00,2450.91 3863.00,2416.46 3863.00,2416.46              3863.00,2416.46 3800.00,2373.67 3800.00,2373.67              3781.27,2361.18 3762.94,2347.39 3743.00,2336.89              3743.00,2336.89 3678.00,2309.99 3678.00,2309.99              3678.00,2309.99 3606.00,2281.43 3606.00,2281.43              3606.00,2281.43 3563.00,2271.79 3563.00,2271.79              3563.00,2271.79 3492.00,2256.58 3492.00,2256.58              3492.00,2256.58 3368.00,2230.42 3368.00,2230.42              3368.00,2230.42 3280.00,2217.73 3280.00,2217.73              3253.55,2213.92 3206.99,2206.04 3182.00,2206.00              3182.00,2206.00 3151.00,2206.00 3151.00,2206.00              3151.00,2206.00 3130.00,2205.00 3130.00,2205.00              3130.00,2205.00 3081.00,2205.00 3081.00,2205.00              3081.00,2205.00 3046.00,2205.00 3046.00,2205.00              3046.00,2205.00 3031.00,2206.00 3031.00,2206.00              3007.81,2206.27 2985.30,2210.07 2963.00,2201.30              2940.60,2192.50 2926.90,2166.34 2938.69,2144.00              2948.53,2125.37 2969.69,2118.29 2989.00,2114.40              3009.24,2110.32 3029.50,2108.79 3050.00,2106.83              3050.00,2106.83 3100.00,2104.00 3100.00,2104.00              3100.00,2104.00 3117.00,2103.00 3117.00,2103.00              3117.00,2103.00 3129.00,2103.00 3129.00,2103.00              3129.00,2103.00 3148.00,2101.89 3148.00,2101.89              3148.00,2101.89 3167.00,2101.89 3167.00,2101.89              3167.00,2101.89 3173.96,2101.89 3173.96,2101.89 Z"
     style="stroke:none;fill:#ffffff;fill-opacity:1;filter:url(#filter1)" />
</svg>
