<?xml version="1.0" encoding="UTF-8" standalone="no"?>
<svg
   width="2380.95mm"
   height="2380.95mm"
   viewBox="0 0 6750 6750"
   version="1.1"
   id="svg1"
   sodipodi:docname="Orion Spur.svg"
   inkscape:version="1.3.2 (091e20e, 2023-11-25, custom)"
   xmlns:inkscape="http://www.inkscape.org/namespaces/inkscape"
   xmlns:sodipodi="http://sodipodi.sourceforge.net/DTD/sodipodi-0.dtd"
   xmlns="http://www.w3.org/2000/svg"
   xmlns:svg="http://www.w3.org/2000/svg">
  <defs
     id="defs1">
    <filter
       inkscape:collect="always"
       style="color-interpolation-filters:sRGB"
       id="filter1"
       x="-0.2264948"
       y="-0.35477554"
       width="1.4529896"
       height="1.7095511">
      <feGaussianBlur
         inkscape:collect="always"
         stdDeviation="141.52212"
         id="feGaussianBlur1" />
    </filter>
  </defs>
  <sodipodi:namedview
     id="namedview1"
     pagecolor="#ffffff"
     bordercolor="#000000"
     borderopacity="0.25"
     inkscape:showpageshadow="2"
     inkscape:pageopacity="0.0"
     inkscape:pagecheckerboard="0"
     inkscape:deskcolor="#d1d1d1"
     inkscape:document-units="mm"
     inkscape:zoom="0.090344717"
     inkscape:cx="4493.8986"
     inkscape:cy="4499.433"
     inkscape:window-width="1920"
     inkscape:window-height="1009"
     inkscape:window-x="-8"
     inkscape:window-y="-8"
     inkscape:window-maximized="1"
     inkscape:current-layer="svg1" />
  <path
     id="Orion Spur"
     fill="none"
     stroke="black"
     stroke-width="1"
     d="M 2535.26,4021.25            C 2541.29,4020.80 2544.28,4026.61 2547.34,4030.99              2552.84,4038.82 2561.54,4050.30 2568.13,4057.00              2588.59,4077.78 2606.40,4080.38 2619.48,4097.00              2636.53,4118.66 2639.33,4148.76 2651.70,4168.00              2651.70,4168.00 2672.58,4196.00 2672.58,4196.00              2672.58,4196.00 2696.27,4226.00 2696.27,4226.00              2696.27,4226.00 2728.83,4262.00 2728.83,4262.00              2728.83,4262.00 2768.83,4306.00 2768.83,4306.00              2768.83,4306.00 2810.00,4349.96 2810.00,4349.96              2810.00,4349.96 2839.00,4374.61 2839.00,4374.61              2839.00,4374.61 2877.00,4406.27 2877.00,4406.27              2877.00,4406.27 2962.00,4477.25 2962.00,4477.25              2962.00,4477.25 2999.00,4508.20 2999.00,4508.20              3024.46,4528.74 3064.90,4550.94 3094.00,4568.40              3094.00,4568.40 3255.00,4665.20 3255.00,4665.20              3255.00,4665.20 3355.00,4729.34 3355.00,4729.34              3355.00,4729.34 3407.00,4762.57 3407.00,4762.57              3407.00,4762.57 3456.00,4786.31 3456.00,4786.31              3456.00,4786.31 3537.00,4824.31 3537.00,4824.31              3537.00,4824.31 3567.00,4838.26 3567.00,4838.26              3567.00,4838.26 3608.00,4856.95 3608.00,4856.95              3608.00,4856.95 3676.00,4875.37 3676.00,4875.37              3694.02,4879.93 3714.44,4886.97 3733.00,4887.00              3733.00,4887.00 3755.00,4887.00 3755.00,4887.00              3755.00,4887.00 3771.00,4886.00 3771.00,4886.00              3771.00,4886.00 3826.00,4886.00 3826.00,4886.00              3826.00,4886.00 3841.00,4885.00 3841.00,4885.00              3866.38,4884.71 3917.67,4876.87 3946.00,4873.84              3946.00,4873.84 3972.00,4871.00 3972.00,4871.00              3991.03,4870.78 4005.89,4872.84 4019.18,4888.17              4023.53,4893.19 4026.50,4900.50 4027.74,4907.00              4032.18,4930.24 4018.57,4949.75 3997.00,4957.94              3986.42,4961.95 3973.25,4962.96 3962.00,4964.16              3962.00,4964.16 3919.00,4969.28 3919.00,4969.28              3901.01,4971.50 3861.24,4976.97 3845.00,4977.00              3845.00,4977.00 3814.00,4977.00 3814.00,4977.00              3814.00,4977.00 3793.00,4978.00 3793.00,4978.00              3793.00,4978.00 3747.00,4978.00 3747.00,4978.00              3747.00,4978.00 3736.00,4978.60 3736.00,4978.60              3736.00,4978.60 3725.00,4978.00 3725.00,4978.00              3725.00,4978.00 3718.00,4978.00 3718.00,4978.00              3699.50,4977.78 3666.19,4967.67 3647.00,4962.87              3647.00,4962.87 3574.00,4942.58 3574.00,4942.58              3574.00,4942.58 3521.00,4918.31 3521.00,4918.31              3521.00,4918.31 3433.00,4877.31 3433.00,4877.31              3411.56,4867.46 3380.80,4853.93 3361.00,4842.57              3361.00,4842.57 3305.00,4806.69 3305.00,4806.69              3305.00,4806.69 3185.00,4730.40 3185.00,4730.40              3185.00,4730.40 3047.00,4647.60 3047.00,4647.60              3047.00,4647.60 3002.00,4620.60 3002.00,4620.60              3002.00,4620.60 2963.00,4596.66 2963.00,4596.66              2940.14,4581.13 2889.55,4536.55 2865.00,4516.42              2865.00,4516.42 2798.00,4460.43 2798.00,4460.43              2798.00,4460.43 2743.00,4413.96 2743.00,4413.96              2743.00,4413.96 2713.02,4382.00 2713.02,4382.00              2713.02,4382.00 2665.83,4330.00 2665.83,4330.00              2665.83,4330.00 2624.43,4284.00 2624.43,4284.00              2624.43,4284.00 2600.13,4253.00 2600.13,4253.00              2588.99,4238.15 2575.02,4222.29 2566.48,4206.00              2557.91,4189.65 2546.09,4145.89 2539.98,4126.00              2530.44,4094.99 2528.72,4080.24 2529.00,4048.00              2529.07,4040.60 2529.28,4025.98 2535.26,4021.25 Z"
     style="stroke:none;fill:#ffffff;fill-opacity:1;filter:url(#filter1)" />
</svg>
