<?xml version="1.0" encoding="UTF-8" standalone="no"?>
<svg
   width="2380.95mm"
   height="2380.95mm"
   viewBox="0 0 6750 6750"
   version="1.1"
   id="svg1"
   sodipodi:docname="Outer Arm.svg"
   inkscape:version="1.3.2 (091e20e, 2023-11-25, custom)"
   xmlns:inkscape="http://www.inkscape.org/namespaces/inkscape"
   xmlns:sodipodi="http://sodipodi.sourceforge.net/DTD/sodipodi-0.dtd"
   xmlns="http://www.w3.org/2000/svg"
   xmlns:svg="http://www.w3.org/2000/svg">
  <defs
     id="defs1">
    <filter
       inkscape:collect="always"
       style="color-interpolation-filters:sRGB"
       id="filter1"
       x="-0.094617874"
       y="-0.12579107"
       width="1.1892357"
       height="1.2515821">
      <feGaussianBlur
         inkscape:collect="always"
         stdDeviation="189.6903"
         id="feGaussianBlur1" />
    </filter>
  </defs>
  <sodipodi:namedview
     id="namedview1"
     pagecolor="#ffffff"
     bordercolor="#000000"
     borderopacity="0.25"
     inkscape:showpageshadow="2"
     inkscape:pageopacity="0.0"
     inkscape:pagecheckerboard="0"
     inkscape:deskcolor="#d1d1d1"
     inkscape:document-units="mm"
     inkscape:zoom="0.063883362"
     inkscape:cx="5228.2784"
     inkscape:cy="5815.2857"
     inkscape:window-width="1920"
     inkscape:window-height="1009"
     inkscape:window-x="-8"
     inkscape:window-y="-8"
     inkscape:window-maximized="1"
     inkscape:current-layer="svg1" />
  <path
     id="Outer Arm"
     fill="none"
     stroke="black"
     stroke-width="1"
     d="M 2621.00,2223.85            C 2636.98,2224.06 2649.03,2224.83 2664.00,2231.51              2687.87,2242.17 2705.69,2267.63 2706.00,2294.00              2706.13,2305.81 2705.39,2314.64 2702.00,2326.00              2699.47,2334.45 2695.07,2342.96 2689.76,2350.00              2664.70,2383.23 2632.87,2390.25 2594.00,2395.12              2594.00,2395.12 2560.00,2399.16 2560.00,2399.16              2560.00,2399.16 2539.00,2401.84 2539.00,2401.84              2516.83,2404.21 2494.69,2406.60 2473.00,2412.04              2473.00,2412.04 2404.00,2434.49 2404.00,2434.49              2404.00,2434.49 2334.00,2458.46 2334.00,2458.46              2334.00,2458.46 2267.00,2486.44 2267.00,2486.44              2267.00,2486.44 2203.00,2513.72 2203.00,2513.72              2191.83,2518.54 2180.92,2521.70 2174.36,2533.00              2170.59,2539.50 2166.80,2564.38 2164.27,2574.00              2157.07,2601.26 2147.44,2627.63 2137.58,2654.00              2137.58,2654.00 2109.56,2725.00 2109.56,2725.00              2109.56,2725.00 2070.27,2804.00 2070.27,2804.00              2070.27,2804.00 2064.75,2816.00 2064.75,2816.00              2064.75,2816.00 2032.56,2880.00 2032.56,2880.00              2013.91,2917.18 1992.59,2952.55 1970.91,2988.00              1970.91,2988.00 1919.19,3073.00 1919.19,3073.00              1919.19,3073.00 1890.87,3120.00 1890.87,3120.00              1877.30,3144.10 1865.41,3175.18 1854.58,3201.00              1854.58,3201.00 1828.45,3263.00 1828.45,3263.00              1828.45,3263.00 1807.31,3319.00 1807.31,3319.00              1807.31,3319.00 1782.95,3384.00 1782.95,3384.00              1782.95,3384.00 1769.57,3422.00 1769.57,3422.00              1761.60,3448.44 1757.47,3475.91 1752.39,3503.00              1746.84,3532.58 1741.39,3561.91 1739.93,3592.00              1739.93,3592.00 1739.00,3608.00 1739.00,3608.00              1739.00,3608.00 1739.00,3960.00 1739.00,3960.00              1739.01,3967.06 1739.83,3970.25 1740.72,3977.00              1744.15,4003.08 1748.95,4016.42 1755.11,4041.00              1755.11,4041.00 1795.53,4196.00 1795.53,4196.00              1820.54,4296.04 1847.79,4395.60 1875.26,4495.00              1875.26,4495.00 1896.27,4573.00 1896.27,4573.00              1903.53,4600.55 1910.65,4628.19 1920.44,4655.00              1920.44,4655.00 1941.55,4706.00 1941.55,4706.00              1949.73,4726.43 1958.59,4748.80 1969.17,4768.00              1980.31,4788.21 2002.97,4820.50 2016.86,4840.00              2016.86,4840.00 2041.66,4876.00 2041.66,4876.00              2046.34,4882.88 2051.02,4891.65 2058.01,4896.30              2058.01,4896.30 2095.00,4916.54 2095.00,4916.54              2095.00,4916.54 2114.00,4922.34 2114.00,4922.34              2114.00,4922.34 2206.00,4951.60 2206.00,4951.60              2228.48,4960.66 2249.24,4973.55 2267.00,4990.09              2267.00,4990.09 2322.00,5044.99 2322.00,5044.99              2322.00,5044.99 2355.00,5073.04 2355.00,5073.04              2355.00,5073.04 2381.00,5098.91 2381.00,5098.91              2381.00,5098.91 2426.00,5139.16 2426.00,5139.16              2426.00,5139.16 2466.09,5174.15 2466.09,5174.15              2485.38,5189.26 2538.37,5228.30 2558.00,5240.08              2558.00,5240.08 2619.00,5272.25 2619.00,5272.25              2619.00,5272.25 2649.00,5287.75 2649.00,5287.75              2649.00,5287.75 2692.00,5309.63 2692.00,5309.63              2692.00,5309.63 2700.00,5313.32 2700.00,5313.32              2700.00,5313.32 2807.00,5368.25 2807.00,5368.25              2807.00,5368.25 2864.00,5396.08 2864.00,5396.08              2888.00,5405.71 2908.47,5409.70 2933.00,5416.28              2933.00,5416.28 3023.00,5439.73 3023.00,5439.73              3023.00,5439.73 3339.00,5522.74 3339.00,5522.74              3339.00,5522.74 3401.00,5540.57 3401.00,5540.57              3401.00,5540.57 3569.00,5587.91 3569.00,5587.91              3569.00,5587.91 3645.00,5609.42 3645.00,5609.42              3645.00,5609.42 3697.00,5623.58 3697.00,5623.58              3697.00,5623.58 3747.00,5632.28 3747.00,5632.28              3747.00,5632.28 3793.00,5639.28 3793.00,5639.28              3793.00,5639.28 3866.00,5650.28 3866.00,5650.28              3875.63,5651.65 3885.24,5653.98 3895.00,5654.00              3895.00,5654.00 3939.00,5653.00 3939.00,5653.00              3939.00,5653.00 3954.00,5651.96 3954.00,5651.96              3954.00,5651.96 3970.00,5651.96 3970.00,5651.96              3970.00,5651.96 3982.00,5651.00 3982.00,5651.00              3982.00,5651.00 3997.00,5651.82 3997.00,5651.82              3997.00,5651.82 4009.00,5651.00 4009.00,5651.00              4009.00,5651.00 4075.00,5649.00 4075.00,5649.00              4075.00,5649.00 4097.00,5648.00 4097.00,5648.00              4097.00,5648.00 4107.00,5648.82 4107.00,5648.82              4107.00,5648.82 4118.00,5648.00 4118.00,5648.00              4118.00,5648.00 4131.00,5648.00 4131.00,5648.00              4131.00,5648.00 4147.00,5646.96 4147.00,5646.96              4147.00,5646.96 4163.00,5646.96 4163.00,5646.96              4163.00,5646.96 4175.00,5646.00 4175.00,5646.00              4175.00,5646.00 4190.00,5646.82 4190.00,5646.82              4190.00,5646.82 4200.00,5646.00 4200.00,5646.00              4200.00,5646.00 4213.00,5646.00 4213.00,5646.00              4213.00,5646.00 4261.00,5640.27 4261.00,5640.27              4261.00,5640.27 4302.00,5634.57 4302.00,5634.57              4302.00,5634.57 4349.00,5626.43 4349.00,5626.43              4349.00,5626.43 4397.00,5619.27 4397.00,5619.27              4397.00,5619.27 4428.00,5614.74 4428.00,5614.74              4428.00,5614.74 4444.00,5610.88 4444.00,5610.88              4444.00,5610.88 4473.00,5604.42 4473.00,5604.42              4473.00,5604.42 4512.00,5595.57 4512.00,5595.57              4512.00,5595.57 4587.00,5565.40 4587.00,5565.40              4587.00,5565.40 4617.00,5553.58 4617.00,5553.58              4617.00,5553.58 4648.00,5540.40 4648.00,5540.40              4648.00,5540.40 4690.00,5523.69 4690.00,5523.69              4690.00,5523.69 4732.00,5503.31 4732.00,5503.31              4732.00,5503.31 4765.00,5488.74 4765.00,5488.74              4765.00,5488.74 4808.00,5467.86 4808.00,5467.86              4808.00,5467.86 4868.00,5444.95 4868.00,5444.95              4868.00,5444.95 4946.00,5416.05 4946.00,5416.05              4946.00,5416.05 4993.00,5397.69 4993.00,5397.69              4993.00,5397.69 5010.00,5389.26 5010.00,5389.26              5010.00,5389.26 5045.00,5372.74 5045.00,5372.74              5045.00,5372.74 5084.00,5353.26 5084.00,5353.26              5084.00,5353.26 5135.00,5328.78 5135.00,5328.78              5135.00,5328.78 5178.00,5307.69 5178.00,5307.69              5178.00,5307.69 5267.00,5257.42 5267.00,5257.42              5267.00,5257.42 5342.00,5215.57 5342.00,5215.57              5342.00,5215.57 5389.00,5189.14 5389.00,5189.14              5389.00,5189.14 5413.00,5175.31 5413.00,5175.31              5413.00,5175.31 5458.00,5151.31 5458.00,5151.31              5458.00,5151.31 5498.00,5129.78 5498.00,5129.78              5498.00,5129.78 5516.00,5120.69 5516.00,5120.69              5516.00,5120.69 5597.00,5077.26 5597.00,5077.26              5597.00,5077.26 5706.00,5019.57 5706.00,5019.57              5706.00,5019.57 5754.00,4988.69 5754.00,4988.69              5754.00,4988.69 5789.00,4967.58 5789.00,4967.58              5789.00,4967.58 5826.00,4943.42 5826.00,4943.42              5826.00,4943.42 5859.00,4923.58 5859.00,4923.58              5859.00,4923.58 5921.00,4883.00 5921.00,4883.00              5956.33,4859.71 5971.70,4852.15 6000.72,4819.00              6000.72,4819.00 6044.42,4766.00 6044.42,4766.00              6051.91,4756.41 6058.74,4748.67 6064.99,4738.00              6075.00,4720.90 6089.70,4680.97 6098.01,4661.00              6098.01,4661.00 6106.40,4642.00 6106.40,4642.00              6119.79,4608.84 6130.42,4575.20 6140.72,4541.00              6140.72,4541.00 6156.35,4487.00 6156.35,4487.00              6156.35,4487.00 6166.43,4429.00 6166.43,4429.00              6166.43,4429.00 6172.92,4392.00 6172.92,4392.00              6172.92,4392.00 6178.61,4356.00 6178.61,4356.00              6178.61,4356.00 6188.43,4309.00 6188.43,4309.00              6188.43,4309.00 6191.57,4298.00 6191.57,4298.00              6191.57,4298.00 6200.42,4256.00 6200.42,4256.00              6200.42,4256.00 6205.79,4234.00 6205.79,4234.00              6205.79,4234.00 6211.43,4206.00 6211.43,4206.00              6211.43,4206.00 6214.76,4195.00 6214.76,4195.00              6214.76,4195.00 6221.42,4162.00 6221.42,4162.00              6221.42,4162.00 6226.57,4142.00 6226.57,4142.00              6226.57,4142.00 6234.43,4104.00 6234.43,4104.00              6234.43,4104.00 6237.34,4094.00 6237.34,4094.00              6237.34,4094.00 6241.58,4074.00 6241.58,4074.00              6241.58,4074.00 6248.16,4044.00 6248.16,4044.00              6248.16,4044.00 6257.00,4003.00 6257.00,4003.00              6257.00,4003.00 6261.57,3986.00 6261.57,3986.00              6261.57,3986.00 6267.21,3958.00 6267.21,3958.00              6267.21,3958.00 6272.57,3937.00 6272.57,3937.00              6272.57,3937.00 6281.21,3895.00 6281.21,3895.00              6281.21,3895.00 6285.56,3878.00 6285.56,3878.00              6285.56,3878.00 6286.17,3869.00 6286.17,3869.00              6286.17,3869.00 6288.16,3849.00 6288.16,3849.00              6290.41,3828.03 6291.10,3807.94 6313.00,3797.79              6317.26,3795.82 6321.28,3794.82 6326.00,3795.09              6341.65,3796.00 6362.49,3808.85 6365.53,3825.00              6365.53,3825.00 6364.00,3863.00 6364.00,3863.00              6364.00,3863.00 6364.00,3868.00 6364.00,3868.00              6364.00,3868.00 6363.09,3878.00 6363.09,3878.00              6363.09,3878.00 6361.91,3901.00 6361.91,3901.00              6361.91,3901.00 6361.00,3913.00 6361.00,3913.00              6361.00,3913.00 6361.00,3918.00 6361.00,3918.00              6361.00,3918.00 6360.09,3928.00 6360.09,3928.00              6360.09,3928.00 6358.91,3951.00 6358.91,3951.00              6358.91,3951.00 6358.00,3963.00 6358.00,3963.00              6358.00,3963.00 6358.00,3968.00 6358.00,3968.00              6358.00,3968.00 6357.09,3978.00 6357.09,3978.00              6357.09,3978.00 6355.91,4001.00 6355.91,4001.00              6355.91,4001.00 6355.00,4013.00 6355.00,4013.00              6355.00,4013.00 6355.00,4018.00 6355.00,4018.00              6355.00,4018.00 6354.09,4028.00 6354.09,4028.00              6354.09,4028.00 6352.91,4051.00 6352.91,4051.00              6352.91,4051.00 6352.00,4063.00 6352.00,4063.00              6352.00,4063.00 6352.00,4068.00 6352.00,4068.00              6352.00,4068.00 6351.09,4078.00 6351.09,4078.00              6351.09,4078.00 6349.00,4118.00 6349.00,4118.00              6349.00,4118.00 6348.09,4128.00 6348.09,4128.00              6348.09,4128.00 6346.91,4151.00 6346.91,4151.00              6346.91,4151.00 6345.00,4183.00 6345.00,4183.00              6345.00,4183.00 6344.09,4193.00 6344.09,4193.00              6344.09,4193.00 6342.00,4233.00 6342.00,4233.00              6342.00,4233.00 6341.09,4243.00 6341.09,4243.00              6341.09,4243.00 6339.00,4283.00 6339.00,4283.00              6339.00,4283.00 6338.09,4293.00 6338.09,4293.00              6338.09,4293.00 6336.00,4332.00 6336.00,4332.00              6336.00,4332.00 6334.09,4357.00 6334.09,4357.00              6334.09,4357.00 6333.00,4380.00 6333.00,4380.00              6333.00,4380.00 6332.09,4392.00 6332.09,4392.00              6332.09,4392.00 6330.00,4432.00 6330.00,4432.00              6330.00,4432.00 6329.09,4442.00 6329.09,4442.00              6329.09,4442.00 6327.00,4482.00 6327.00,4482.00              6327.00,4482.00 6325.09,4507.00 6325.09,4507.00              6325.09,4507.00 6322.91,4550.00 6322.91,4550.00              6322.91,4550.00 6321.00,4575.00 6321.00,4575.00              6321.00,4575.00 6318.68,4613.00 6318.68,4613.00              6318.68,4613.00 6309.72,4643.00 6309.72,4643.00              6301.67,4669.84 6291.60,4695.99 6281.20,4722.00              6281.20,4722.00 6268.42,4752.00 6268.42,4752.00              6268.42,4752.00 6254.99,4786.00 6254.99,4786.00              6254.99,4786.00 6247.85,4802.00 6247.85,4802.00              6247.85,4802.00 6232.82,4838.00 6232.82,4838.00              6219.48,4862.52 6200.33,4883.34 6183.00,4905.00              6183.00,4905.00 6146.41,4949.00 6146.41,4949.00              6136.15,4961.33 6125.55,4974.93 6114.00,4985.96              6104.16,4995.36 6083.11,5007.86 6071.00,5016.42              6071.00,5016.42 6026.00,5046.34 6026.00,5046.34              6026.00,5046.34 5969.00,5083.58 5969.00,5083.58              5969.00,5083.58 5945.00,5097.81 5945.00,5097.81              5945.00,5097.81 5901.00,5126.31 5901.00,5126.31              5901.00,5126.31 5865.00,5148.05 5865.00,5148.05              5865.00,5148.05 5802.00,5187.58 5802.00,5187.58              5802.00,5187.58 5757.00,5211.78 5757.00,5211.78              5757.00,5211.78 5724.00,5229.74 5724.00,5229.74              5724.00,5229.74 5685.00,5249.26 5685.00,5249.26              5685.00,5249.26 5644.00,5271.69 5644.00,5271.69              5644.00,5271.69 5611.00,5288.78 5611.00,5288.78              5611.00,5288.78 5571.00,5310.69 5571.00,5310.69              5571.00,5310.69 5513.00,5341.31 5513.00,5341.31              5513.00,5341.31 5471.00,5365.14 5471.00,5365.14              5471.00,5365.14 5350.00,5432.86 5350.00,5432.86              5350.00,5432.86 5267.00,5479.69 5267.00,5479.69              5267.00,5479.69 5234.00,5495.78 5234.00,5495.78              5234.00,5495.78 5183.00,5520.26 5183.00,5520.26              5183.00,5520.26 5109.00,5556.26 5109.00,5556.26              5109.00,5556.26 5092.00,5564.69 5092.00,5564.69              5092.00,5564.69 5026.00,5591.05 5026.00,5591.05              5026.00,5591.05 4946.00,5620.58 4946.00,5620.58              4946.00,5620.58 4903.00,5636.86 4903.00,5636.86              4903.00,5636.86 4862.00,5656.69 4862.00,5656.69              4862.00,5656.69 4829.00,5671.26 4829.00,5671.26              4829.00,5671.26 4786.00,5692.14 4786.00,5692.14              4786.00,5692.14 4729.00,5714.81 4729.00,5714.81              4729.00,5714.81 4708.00,5723.99 4708.00,5723.99              4708.00,5723.99 4675.00,5737.01 4675.00,5737.01              4675.00,5737.01 4657.00,5744.99 4657.00,5744.99              4657.00,5744.99 4623.00,5758.42 4623.00,5758.42              4623.00,5758.42 4595.00,5770.31 4595.00,5770.31              4595.00,5770.31 4562.00,5779.85 4562.00,5779.85              4562.00,5779.85 4518.00,5789.42 4518.00,5789.42              4518.00,5789.42 4473.00,5799.75 4473.00,5799.75              4473.00,5799.75 4460.00,5801.43 4460.00,5801.43              4460.00,5801.43 4406.00,5809.43 4406.00,5809.43              4406.00,5809.43 4359.00,5817.57 4359.00,5817.57              4359.00,5817.57 4297.00,5826.43 4297.00,5826.43              4279.39,5829.04 4250.01,5833.97 4233.00,5834.00              4233.00,5834.00 4220.00,5834.00 4220.00,5834.00              4220.00,5834.00 4200.00,5835.00 4200.00,5835.00              4200.00,5835.00 4190.00,5834.18 4190.00,5834.18              4190.00,5834.18 4179.00,5835.00 4179.00,5835.00              4179.00,5835.00 4166.00,5835.00 4166.00,5835.00              4166.00,5835.00 4150.00,5836.04 4150.00,5836.04              4150.00,5836.04 4134.00,5836.04 4134.00,5836.04              4134.00,5836.04 4122.00,5837.00 4122.00,5837.00              4122.00,5837.00 4107.00,5836.18 4107.00,5836.18              4107.00,5836.18 4095.00,5837.04 4095.00,5837.04              4095.00,5837.04 4079.00,5837.04 4079.00,5837.04              4079.00,5837.04 4067.00,5838.00 4067.00,5838.00              4067.00,5838.00 4029.00,5839.00 4029.00,5839.00              4029.00,5839.00 4007.00,5840.00 4007.00,5840.00              4007.00,5840.00 3997.00,5839.18 3997.00,5839.18              3997.00,5839.18 3985.00,5840.00 3985.00,5840.00              3985.00,5840.00 3947.00,5841.00 3947.00,5841.00              3947.00,5841.00 3930.00,5842.00 3930.00,5842.00              3930.00,5842.00 3918.00,5842.00 3918.00,5842.00              3918.00,5842.00 3897.00,5843.00 3897.00,5843.00              3897.00,5843.00 3887.00,5842.18 3887.00,5842.18              3887.00,5842.18 3872.00,5843.00 3872.00,5843.00              3872.00,5843.00 3858.00,5842.18 3858.00,5842.18              3858.00,5842.18 3842.00,5843.00 3842.00,5843.00              3842.00,5843.00 3832.00,5842.18 3832.00,5842.18              3832.00,5842.18 3825.00,5842.95 3825.00,5842.95              3825.00,5842.95 3815.00,5842.95 3815.00,5842.95              3815.00,5842.95 3804.00,5842.02 3804.00,5842.02              3804.00,5842.02 3787.00,5842.02 3787.00,5842.02              3770.10,5841.80 3729.48,5835.45 3711.00,5832.73              3711.00,5832.73 3695.00,5830.17 3695.00,5830.17              3695.00,5830.17 3662.00,5827.83 3662.00,5827.83              3662.00,5827.83 3641.00,5825.17 3641.00,5825.17              3641.00,5825.17 3609.00,5822.72 3609.00,5822.72              3609.00,5822.72 3570.00,5816.58 3570.00,5816.58              3570.00,5816.58 3553.00,5811.88 3553.00,5811.88              3553.00,5811.88 3532.00,5806.88 3532.00,5806.88              3532.00,5806.88 3486.00,5796.58 3486.00,5796.58              3486.00,5796.58 3422.00,5776.00 3422.00,5776.00              3422.00,5776.00 3387.00,5765.00 3387.00,5765.00              3387.00,5765.00 3334.00,5748.42 3334.00,5748.42              3334.00,5748.42 3314.00,5745.83 3314.00,5745.83              3314.00,5745.83 3289.00,5742.72 3289.00,5742.72              3289.00,5742.72 3224.00,5731.80 3224.00,5731.80              3224.00,5731.80 3196.00,5726.58 3196.00,5726.58              3196.00,5726.58 3170.00,5720.58 3170.00,5720.58              3170.00,5720.58 3117.00,5702.69 3117.00,5702.69              3084.76,5691.22 3052.10,5679.87 3019.00,5671.15              3019.00,5671.15 2994.00,5666.39 2994.00,5666.39              2994.00,5666.39 2972.00,5661.42 2972.00,5661.42              2972.00,5661.42 2956.00,5658.11 2956.00,5658.11              2956.00,5658.11 2855.00,5628.43 2855.00,5628.43              2855.00,5628.43 2761.00,5601.66 2761.00,5601.66              2739.83,5594.31 2719.34,5585.01 2699.00,5575.69              2699.00,5575.69 2679.00,5565.86 2679.00,5565.86              2679.00,5565.86 2627.00,5544.22 2627.00,5544.22              2627.00,5544.22 2612.00,5536.25 2612.00,5536.25              2612.00,5536.25 2581.00,5520.69 2581.00,5520.69              2581.00,5520.69 2522.00,5485.58 2522.00,5485.58              2522.00,5485.58 2487.00,5462.34 2487.00,5462.34              2487.00,5462.34 2452.00,5438.12 2452.00,5438.12              2452.00,5438.12 2393.00,5392.00 2393.00,5392.00              2393.00,5392.00 2332.42,5342.72 2332.42,5342.72              2332.42,5342.72 2296.39,5300.00 2296.39,5300.00              2296.39,5300.00 2258.28,5256.00 2258.28,5256.00              2243.73,5239.25 2228.23,5221.28 2211.00,5207.26              2189.23,5189.55 2163.45,5175.71 2139.00,5162.14              2139.00,5162.14 2073.00,5125.31 2073.00,5125.31              2073.00,5125.31 2055.00,5116.22 2055.00,5116.22              2055.00,5116.22 2008.00,5090.42 2008.00,5090.42              1990.41,5080.34 1961.14,5063.95 1946.00,5051.54              1918.11,5028.67 1891.88,4985.33 1870.98,4955.00              1853.83,4930.12 1822.63,4886.55 1808.86,4862.00              1796.53,4840.03 1787.43,4817.10 1777.58,4794.00              1777.58,4794.00 1743.05,4709.00 1743.05,4709.00              1732.74,4680.78 1725.49,4651.03 1717.85,4622.00              1717.85,4622.00 1696.27,4542.00 1696.27,4542.00              1696.27,4542.00 1690.43,4522.00 1690.43,4522.00              1690.43,4522.00 1687.57,4510.00 1687.57,4510.00              1687.57,4510.00 1674.42,4463.00 1674.42,4463.00              1674.42,4463.00 1643.27,4345.00 1643.27,4345.00              1643.27,4345.00 1616.11,4241.00 1616.11,4241.00              1616.11,4241.00 1595.15,4162.00 1595.15,4162.00              1595.15,4162.00 1576.25,4088.00 1576.25,4088.00              1569.73,4063.32 1560.63,4031.87 1557.28,4007.00              1557.28,4007.00 1554.91,3979.00 1554.91,3979.00              1554.91,3979.00 1554.00,3967.00 1554.00,3967.00              1554.00,3967.00 1554.00,3612.00 1554.00,3612.00              1554.00,3612.00 1554.00,3588.00 1554.00,3588.00              1554.00,3588.00 1555.00,3571.00 1555.00,3571.00              1555.34,3541.50 1563.88,3506.41 1569.39,3477.00              1575.26,3445.70 1579.74,3413.73 1588.15,3383.00              1596.81,3351.35 1609.00,3320.67 1620.58,3290.00              1620.58,3290.00 1658.61,3189.00 1658.61,3189.00              1658.61,3189.00 1680.99,3136.00 1680.99,3136.00              1695.28,3101.63 1709.39,3066.95 1726.78,3034.00              1726.78,3034.00 1756.55,2984.00 1756.55,2984.00              1756.55,2984.00 1809.91,2896.00 1809.91,2896.00              1809.91,2896.00 1851.69,2826.00 1851.69,2826.00              1851.69,2826.00 1878.25,2774.00 1878.25,2774.00              1878.25,2774.00 1907.26,2716.00 1907.26,2716.00              1907.26,2716.00 1916.19,2699.00 1916.19,2699.00              1916.19,2699.00 1932.97,2665.00 1932.97,2665.00              1932.97,2665.00 1940.14,2651.00 1940.14,2651.00              1940.14,2651.00 1973.39,2567.00 1973.39,2567.00              1980.81,2547.68 1986.45,2527.96 1991.85,2508.00              1991.85,2508.00 1998.75,2481.00 1998.75,2481.00              2004.72,2459.81 2015.65,2438.03 2029.62,2421.00              2052.52,2393.06 2085.14,2375.93 2118.00,2362.55              2118.00,2362.55 2204.00,2330.31 2204.00,2330.31              2204.00,2330.31 2293.00,2298.31 2293.00,2298.31              2293.00,2298.31 2305.00,2293.44 2305.00,2293.44              2305.00,2293.44 2387.00,2265.98 2387.00,2265.98              2387.00,2265.98 2402.00,2260.91 2402.00,2260.91              2443.52,2248.72 2486.34,2242.31 2529.00,2235.73              2553.16,2232.00 2589.60,2224.10 2613.00,2223.85              2613.00,2223.85 2621.00,2223.85 2621.00,2223.85 Z            M 3206.50,5021.50"
     style="stroke:none;fill:#ffffff;fill-opacity:1;filter:url(#filter1)" />
</svg>
