<?xml version="1.0" encoding="UTF-8" standalone="no"?>
<svg
   width="2380.95mm"
   height="2380.95mm"
   viewBox="0 0 6750 6750"
   version="1.1"
   id="svg1"
   sodipodi:docname="Perseus Arm.svg"
   inkscape:version="1.3.2 (091e20e, 2023-11-25, custom)"
   xmlns:inkscape="http://www.inkscape.org/namespaces/inkscape"
   xmlns:sodipodi="http://sodipodi.sourceforge.net/DTD/sodipodi-0.dtd"
   xmlns="http://www.w3.org/2000/svg"
   xmlns:svg="http://www.w3.org/2000/svg">
  <defs
     id="defs1">
    <filter
       inkscape:collect="always"
       style="color-interpolation-filters:sRGB"
       id="filter1"
       x="-0.09676292"
       y="-0.1221899"
       width="1.1935258"
       height="1.2443798">
      <feGaussianBlur
         inkscape:collect="always"
         stdDeviation="155.45713"
         id="feGaussianBlur1" />
    </filter>
  </defs>
  <sodipodi:namedview
     id="namedview1"
     pagecolor="#ffffff"
     bordercolor="#000000"
     borderopacity="0.25"
     inkscape:showpageshadow="2"
     inkscape:pageopacity="0.0"
     inkscape:pagecheckerboard="0"
     inkscape:deskcolor="#d1d1d1"
     inkscape:document-units="mm"
     inkscape:zoom="0.063883362"
     inkscape:cx="3522.0438"
     inkscape:cy="4891.7275"
     inkscape:window-width="1920"
     inkscape:window-height="1009"
     inkscape:window-x="-8"
     inkscape:window-y="-8"
     inkscape:window-maximized="1"
     inkscape:current-layer="svg1" />
  <path
     id="Perseus Arm"
     fill="none"
     stroke="black"
     stroke-width="1"
     d="M 3074.00,2366.21            C 3074.00,2366.21 3132.00,2366.21 3132.00,2366.21              3132.00,2366.21 3149.00,2367.00 3149.00,2367.00              3149.00,2367.00 3224.00,2369.00 3224.00,2369.00              3224.00,2369.00 3241.00,2370.08 3241.00,2370.08              3241.00,2370.08 3259.13,2370.08 3259.13,2370.08              3259.13,2370.08 3275.00,2371.00 3275.00,2371.00              3275.00,2371.00 3287.00,2371.00 3287.00,2371.00              3287.00,2371.00 3316.00,2372.68 3316.00,2372.68              3324.96,2372.12 3323.61,2373.40 3331.00,2374.04              3331.00,2374.04 3341.00,2374.04 3341.00,2374.04              3341.00,2374.04 3358.00,2376.71 3358.00,2376.71              3358.00,2376.71 3379.00,2379.32 3379.00,2379.32              3379.00,2379.32 3434.00,2393.08 3434.00,2393.08              3434.00,2393.08 3547.00,2428.26 3547.00,2428.26              3609.87,2448.41 3665.08,2462.19 3722.01,2497.74              3745.05,2512.13 3766.45,2529.29 3788.00,2545.77              3821.42,2571.32 3848.99,2594.15 3877.91,2625.00              3877.91,2625.00 3914.29,2669.00 3914.29,2669.00              3914.29,2669.00 3950.98,2715.17 3950.98,2715.17              3950.98,2715.17 3988.98,2764.09 3988.98,2764.09              3988.98,2764.09 3995.75,2774.00 3995.75,2774.00              3995.75,2774.00 4026.58,2818.00 4026.58,2818.00              4053.03,2860.69 4073.54,2906.79 4095.25,2952.00              4109.27,2981.19 4123.49,3010.18 4130.36,3042.00              4130.36,3042.00 4132.42,3049.72 4132.42,3049.72              4132.42,3049.72 4134.78,3072.04 4134.78,3072.04              4134.78,3072.04 4134.09,3080.00 4134.09,3080.00              4134.09,3080.00 4134.68,3093.00 4134.68,3093.00              4134.16,3101.29 4129.80,3121.96 4127.11,3130.00              4121.25,3147.51 4116.04,3155.64 4105.02,3170.07              4084.02,3197.60 4059.24,3215.00 4025.00,3221.80              4017.59,3223.27 4008.52,3224.62 4001.00,3224.53              3986.45,3224.36 3969.93,3223.83 3956.00,3219.57              3942.97,3215.58 3925.33,3207.62 3914.01,3200.20              3914.01,3200.20 3900.70,3189.29 3900.70,3189.29              3900.70,3189.29 3892.18,3182.54 3892.18,3182.54              3892.18,3182.54 3886.11,3175.51 3886.11,3175.51              3886.11,3175.51 3878.43,3167.71 3878.43,3167.71              3878.43,3167.71 3857.18,3137.72 3857.18,3137.72              3857.18,3137.72 3838.29,3101.00 3838.29,3101.00              3838.29,3101.00 3793.74,3009.00 3793.74,3009.00              3780.01,2982.22 3763.92,2957.77 3745.50,2934.00              3745.50,2934.00 3711.72,2890.83 3711.72,2890.83              3711.72,2890.83 3684.25,2855.17 3684.25,2855.17              3684.25,2855.17 3678.66,2848.96 3678.66,2848.96              3678.66,2848.96 3665.01,2832.51 3665.01,2832.51              3643.94,2809.59 3623.69,2793.08 3599.00,2774.53              3599.00,2774.53 3577.00,2758.10 3577.00,2758.10              3549.81,2740.05 3528.15,2733.49 3498.00,2723.49              3498.00,2723.49 3452.00,2708.81 3452.00,2708.81              3452.00,2708.81 3389.00,2688.98 3389.00,2688.98              3389.00,2688.98 3368.00,2682.04 3368.00,2682.04              3368.00,2682.04 3333.00,2673.45 3333.00,2673.45              3302.09,2667.27 3270.82,2666.47 3239.42,2665.83              3239.42,2665.83 3182.00,2664.00 3182.00,2664.00              3182.00,2664.00 3154.00,2663.00 3154.00,2663.00              3154.00,2663.00 3139.00,2662.11 3139.00,2662.11              3139.00,2662.11 3132.00,2662.66 3132.00,2662.66              3132.00,2662.66 3123.00,2662.00 3123.00,2662.00              3123.00,2662.00 3094.00,2662.00 3094.00,2662.00              3094.00,2662.00 3067.00,2663.00 3067.00,2663.00              3067.00,2663.00 3057.00,2663.91 3057.00,2663.91              3057.00,2663.91 3036.96,2664.99 3036.96,2664.99              3036.96,2664.99 3004.00,2667.91 3004.00,2667.91              2969.21,2670.34 2934.36,2673.24 2899.96,2679.23              2874.73,2683.63 2849.99,2691.47 2825.42,2698.58              2799.75,2706.00 2774.01,2712.71 2749.00,2722.22              2723.43,2731.95 2699.23,2744.28 2675.00,2756.90              2675.00,2756.90 2621.00,2785.30 2621.00,2785.30              2583.16,2807.60 2568.07,2827.42 2539.86,2859.02              2539.86,2859.02 2473.73,2934.00 2473.73,2934.00              2473.73,2934.00 2422.73,2994.00 2422.73,2994.00              2404.02,3015.72 2384.73,3037.47 2367.74,3060.58              2367.74,3060.58 2337.14,3106.00 2337.14,3106.00              2337.14,3106.00 2310.55,3150.00 2310.55,3150.00              2310.55,3150.00 2305.31,3159.00 2305.31,3159.00              2288.19,3193.28 2282.88,3212.60 2271.33,3248.00              2271.33,3248.00 2252.91,3307.00 2252.91,3307.00              2252.91,3307.00 2243.17,3345.72 2243.17,3345.72              2243.17,3345.72 2228.58,3421.00 2228.58,3421.00              2228.58,3421.00 2212.58,3507.00 2212.58,3507.00              2212.58,3507.00 2198.68,3586.00 2198.68,3586.00              2198.68,3586.00 2194.59,3607.28 2194.59,3607.28              2194.59,3607.28 2186.75,3656.00 2186.75,3656.00              2186.75,3656.00 2180.57,3692.00 2180.57,3692.00              2180.57,3692.00 2176.00,3719.00 2176.00,3719.00              2176.00,3719.00 2176.00,3727.00 2176.00,3727.00              2176.00,3727.00 2175.02,3735.00 2175.02,3735.00              2175.02,3735.00 2176.85,3758.32 2176.85,3758.32              2178.56,3773.69 2183.56,3788.36 2188.26,3803.00              2188.26,3803.00 2201.03,3843.83 2201.03,3843.83              2201.03,3843.83 2228.73,3926.00 2228.73,3926.00              2228.73,3926.00 2269.70,4015.00 2269.70,4015.00              2269.70,4015.00 2304.91,4088.00 2304.91,4088.00              2304.91,4088.00 2338.86,4158.00 2338.86,4158.00              2338.86,4158.00 2391.90,4258.00 2391.90,4258.00              2391.90,4258.00 2417.69,4306.00 2417.69,4306.00              2417.69,4306.00 2442.86,4353.00 2442.86,4353.00              2456.65,4376.64 2473.68,4398.14 2493.51,4417.00              2493.51,4417.00 2508.00,4430.09 2508.00,4430.09              2508.00,4430.09 2549.04,4468.17 2549.04,4468.17              2549.04,4468.17 2637.15,4549.42 2637.15,4549.42              2637.15,4549.42 2750.00,4643.42 2750.00,4643.42              2783.78,4671.10 2817.04,4699.38 2852.17,4725.33              2886.99,4751.06 2923.86,4774.17 2960.00,4798.00              2960.00,4798.00 3092.00,4883.74 3092.00,4883.74              3092.00,4883.74 3109.00,4894.68 3109.00,4894.68              3109.00,4894.68 3188.00,4943.42 3188.00,4943.42              3205.58,4954.32 3223.16,4966.06 3242.00,4974.69              3253.05,4979.75 3277.38,4988.90 3289.00,4992.08              3289.00,4992.08 3324.00,5000.91 3324.00,5000.91              3324.00,5000.91 3394.00,5019.15 3394.00,5019.15              3394.00,5019.15 3445.72,5032.88 3445.72,5032.88              3445.72,5032.88 3465.00,5037.41 3465.00,5037.41              3465.00,5037.41 3684.00,5090.23 3684.00,5090.23              3731.11,5101.32 3778.12,5115.02 3826.58,5118.21              3826.58,5118.21 3837.00,5119.00 3837.00,5119.00              3837.00,5119.00 3859.00,5120.00 3859.00,5120.00              3859.00,5120.00 3972.00,5121.00 3972.00,5121.00              3972.00,5121.00 4004.00,5122.00 4004.00,5122.00              4004.00,5122.00 4050.00,5122.00 4050.00,5122.00              4050.00,5122.00 4080.00,5123.00 4080.00,5123.00              4080.00,5123.00 4120.00,5123.00 4120.00,5123.00              4120.00,5123.00 4150.00,5123.97 4150.00,5123.97              4150.00,5123.97 4162.00,5123.00 4162.00,5123.00              4201.30,5122.54 4235.79,5111.88 4273.00,5100.72              4273.00,5100.72 4322.00,5086.42 4322.00,5086.42              4322.00,5086.42 4367.00,5073.15 4367.00,5073.15              4367.00,5073.15 4401.00,5063.25 4401.00,5063.25              4401.00,5063.25 4417.00,5053.43 4417.00,5053.43              4417.00,5053.43 4428.00,5047.55 4428.00,5047.55              4428.00,5047.55 4475.00,5017.81 4475.00,5017.81              4475.00,5017.81 4490.00,5009.55 4490.00,5009.55              4490.00,5009.55 4517.00,4992.20 4517.00,4992.20              4517.00,4992.20 4531.00,4984.55 4531.00,4984.55              4531.00,4984.55 4556.00,4968.42 4556.00,4968.42              4556.00,4968.42 4587.00,4950.55 4587.00,4950.55              4587.00,4950.55 4617.00,4931.05 4617.00,4931.05              4617.00,4931.05 4641.00,4917.14 4641.00,4917.14              4641.00,4917.14 4654.00,4907.67 4654.00,4907.67              4654.00,4907.67 4687.00,4886.48 4687.00,4886.48              4687.00,4886.48 4736.00,4853.34 4736.00,4853.34              4736.00,4853.34 4782.00,4823.48 4782.00,4823.48              4782.00,4823.48 4794.00,4814.67 4794.00,4814.67              4794.00,4814.67 4819.00,4798.25 4819.00,4798.25              4819.00,4798.25 4830.00,4789.48 4830.00,4789.48              4830.00,4789.48 4875.00,4755.48 4875.00,4755.48              4875.00,4755.48 4885.00,4747.01 4885.00,4747.01              4885.00,4747.01 4913.00,4726.48 4913.00,4726.48              4913.00,4726.48 4925.00,4716.48 4925.00,4716.48              4925.00,4716.48 4942.00,4703.71 4942.00,4703.71              4942.00,4703.71 4964.00,4682.00 4964.00,4682.00              4964.00,4682.00 5003.99,4642.00 5003.99,4642.00              5003.99,4642.00 5015.00,4630.00 5015.00,4630.00              5015.00,4630.00 5067.96,4577.00 5067.96,4577.00              5067.96,4577.00 5080.04,4563.00 5080.04,4563.00              5080.04,4563.00 5100.82,4542.00 5100.82,4542.00              5100.82,4542.00 5109.44,4531.00 5109.44,4531.00              5109.44,4531.00 5130.48,4506.00 5130.48,4506.00              5130.48,4506.00 5137.81,4496.00 5137.81,4496.00              5137.81,4496.00 5150.56,4482.00 5150.56,4482.00              5150.56,4482.00 5161.48,4469.00 5161.48,4469.00              5161.48,4469.00 5170.44,4457.00 5170.44,4457.00              5170.44,4457.00 5179.83,4447.00 5179.83,4447.00              5179.83,4447.00 5188.17,4437.00 5188.17,4437.00              5188.17,4437.00 5208.70,4415.00 5208.70,4415.00              5208.70,4415.00 5221.21,4398.00 5221.21,4398.00              5221.21,4398.00 5243.71,4373.00 5243.71,4373.00              5243.71,4373.00 5269.68,4341.00 5269.68,4341.00              5269.68,4341.00 5277.81,4330.00 5277.81,4330.00              5277.81,4330.00 5312.52,4286.00 5312.52,4286.00              5312.52,4286.00 5357.00,4221.00 5357.00,4221.00              5357.00,4221.00 5366.48,4208.00 5366.48,4208.00              5366.48,4208.00 5395.69,4163.00 5395.69,4163.00              5395.69,4163.00 5406.48,4148.00 5406.48,4148.00              5406.48,4148.00 5417.36,4130.00 5417.36,4130.00              5417.36,4130.00 5429.25,4114.00 5429.25,4114.00              5429.25,4114.00 5437.46,4100.00 5437.46,4100.00              5437.46,4100.00 5444.19,4090.00 5444.19,4090.00              5444.19,4090.00 5454.12,4071.00 5454.12,4071.00              5454.12,4071.00 5470.69,4042.00 5470.69,4042.00              5470.69,4042.00 5483.87,4017.00 5483.87,4017.00              5483.87,4017.00 5502.92,3988.00 5502.92,3988.00              5502.92,3988.00 5520.44,3961.00 5520.44,3961.00              5520.44,3961.00 5541.85,3932.00 5541.85,3932.00              5541.85,3932.00 5551.37,3918.00 5551.37,3918.00              5551.37,3918.00 5560.32,3906.00 5560.32,3906.00              5560.32,3906.00 5599.00,3867.43 5599.00,3867.43              5599.00,3867.43 5619.00,3852.54 5619.00,3852.54              5619.00,3852.54 5626.00,3846.51 5626.00,3846.51              5626.00,3846.51 5640.00,3835.83 5640.00,3835.83              5640.00,3835.83 5650.00,3826.39 5650.00,3826.39              5653.03,3824.01 5665.31,3817.71 5669.00,3816.90              5672.03,3816.10 5674.94,3816.80 5678.00,3816.90              5678.00,3816.90 5704.00,3820.60 5704.00,3820.60              5716.96,3824.09 5724.90,3833.09 5730.00,3845.00              5731.03,3847.40 5732.48,3850.43 5732.75,3853.00              5732.75,3853.00 5729.12,3879.00 5729.12,3879.00              5729.12,3879.00 5725.72,3897.00 5725.72,3897.00              5725.72,3897.00 5710.52,3962.00 5710.52,3962.00              5710.52,3962.00 5707.15,3973.00 5707.15,3973.00              5707.15,3973.00 5704.52,3985.00 5704.52,3985.00              5704.52,3985.00 5699.26,4004.00 5699.26,4004.00              5699.26,4004.00 5693.42,4023.00 5693.42,4023.00              5693.42,4023.00 5682.02,4063.00 5682.02,4063.00              5682.02,4063.00 5679.11,4074.00 5679.11,4074.00              5679.11,4074.00 5654.05,4145.00 5654.05,4145.00              5654.05,4145.00 5648.43,4164.00 5648.43,4164.00              5648.43,4164.00 5635.13,4202.00 5635.13,4202.00              5635.13,4202.00 5626.31,4219.00 5626.31,4219.00              5626.31,4219.00 5615.31,4240.00 5615.31,4240.00              5615.31,4240.00 5608.19,4255.00 5608.19,4255.00              5608.19,4255.00 5592.26,4285.00 5592.26,4285.00              5592.26,4285.00 5574.69,4320.00 5574.69,4320.00              5574.69,4320.00 5559.31,4347.00 5559.31,4347.00              5559.31,4347.00 5543.55,4378.00 5543.55,4378.00              5543.55,4378.00 5500.75,4440.00 5500.75,4440.00              5500.75,4440.00 5493.46,4452.00 5493.46,4452.00              5493.46,4452.00 5483.25,4467.00 5483.25,4467.00              5483.25,4467.00 5459.75,4500.00 5459.75,4500.00              5459.75,4500.00 5452.46,4512.00 5452.46,4512.00              5452.46,4512.00 5429.41,4545.00 5429.41,4545.00              5429.41,4545.00 5410.46,4569.00 5410.46,4569.00              5410.46,4569.00 5387.11,4599.00 5387.11,4599.00              5387.11,4599.00 5364.66,4627.00 5364.66,4627.00              5364.66,4627.00 5343.54,4654.00 5343.54,4654.00              5343.54,4654.00 5335.46,4663.00 5335.46,4663.00              5335.46,4663.00 5326.49,4675.00 5326.49,4675.00              5326.49,4675.00 5312.25,4693.00 5312.25,4693.00              5312.25,4693.00 5305.09,4702.00 5305.09,4702.00              5305.09,4702.00 5278.77,4747.00 5278.77,4747.00              5256.63,4782.34 5233.34,4816.86 5207.86,4849.91              5207.86,4849.91 5182.72,4880.09 5182.72,4880.09              5145.59,4923.69 5105.49,4964.57 5065.00,5005.01              5065.00,5005.01 5053.99,5017.00 5053.99,5017.00              5053.99,5017.00 5015.00,5055.07 5015.00,5055.07              4995.04,5074.84 4975.20,5095.16 4953.82,5113.37              4910.22,5150.50 4879.20,5166.56 4830.00,5193.18              4830.00,5193.18 4758.00,5232.14 4758.00,5232.14              4707.58,5259.61 4657.41,5288.85 4604.00,5310.08              4604.00,5310.08 4550.00,5328.04 4550.00,5328.04              4550.00,5328.04 4415.00,5367.72 4415.00,5367.72              4415.00,5367.72 4329.00,5392.91 4329.00,5392.91              4303.19,5400.25 4277.52,5408.11 4251.00,5412.57              4251.00,5412.57 4231.00,5415.30 4231.00,5415.30              4221.83,5416.61 4213.32,5417.89 4204.00,5418.00              4204.00,5418.00 4174.91,5419.63 4174.91,5419.63              4174.91,5419.63 4167.00,5419.63 4167.00,5419.63              4167.00,5419.63 4140.00,5419.63 4140.00,5419.63              4140.00,5419.63 4010.00,5418.00 4010.00,5418.00              4010.00,5418.00 3978.00,5417.00 3978.00,5417.00              3978.00,5417.00 3938.00,5417.00 3938.00,5417.00              3938.00,5417.00 3905.00,5416.00 3905.00,5416.00              3905.00,5416.00 3866.00,5416.00 3866.00,5416.00              3866.00,5416.00 3846.00,5415.15 3846.00,5415.15              3846.00,5415.15 3838.00,5415.15 3838.00,5415.15              3838.00,5415.15 3819.00,5415.15 3819.00,5415.15              3819.00,5415.15 3758.00,5409.56 3758.00,5409.56              3758.00,5409.56 3730.00,5404.46 3730.00,5404.46              3730.00,5404.46 3718.00,5402.50 3718.00,5402.50              3718.00,5402.50 3707.00,5399.45 3707.00,5399.45              3707.00,5399.45 3580.00,5369.89 3580.00,5369.89              3580.00,5369.89 3482.00,5346.65 3482.00,5346.65              3482.00,5346.65 3386.00,5322.92 3386.00,5322.92              3386.00,5322.92 3335.00,5310.11 3335.00,5310.11              3335.00,5310.11 3231.00,5282.88 3231.00,5282.88              3195.44,5273.50 3159.51,5264.41 3126.00,5248.88              3105.57,5239.42 3085.24,5228.49 3066.00,5216.83              3066.00,5216.83 3055.00,5209.45 3055.00,5209.45              3055.00,5209.45 2997.00,5173.94 2997.00,5173.94              2997.00,5173.94 2953.00,5146.25 2953.00,5146.25              2899.57,5114.35 2847.96,5079.27 2796.00,5045.00              2750.12,5014.75 2703.98,4985.10 2660.00,4952.11              2660.00,4952.11 2617.00,4917.61 2617.00,4917.61              2617.00,4917.61 2551.72,4864.29 2551.72,4864.29              2551.72,4864.29 2433.01,4764.87 2433.01,4764.87              2433.01,4764.87 2404.83,4738.59 2404.83,4738.59              2404.83,4738.59 2348.04,4686.17 2348.04,4686.17              2315.08,4655.40 2268.69,4615.15 2240.30,4582.00              2225.07,4564.22 2212.33,4544.63 2199.70,4525.00              2199.70,4525.00 2187.81,4504.00 2187.81,4504.00              2187.81,4504.00 2142.00,4419.00 2142.00,4419.00              2142.00,4419.00 2073.60,4290.00 2073.60,4290.00              2073.60,4290.00 2011.74,4162.00 2011.74,4162.00              2011.74,4162.00 1983.89,4104.00 1983.89,4104.00              1983.89,4104.00 1956.82,4045.00 1956.82,4045.00              1956.82,4045.00 1939.91,3999.00 1939.91,3999.00              1939.91,3999.00 1936.75,3991.00 1936.75,3991.00              1936.75,3991.00 1912.97,3915.00 1912.97,3915.00              1902.67,3882.60 1891.62,3850.30 1884.72,3817.00              1884.72,3817.00 1880.54,3797.00 1880.54,3797.00              1877.29,3775.74 1876.81,3757.41 1877.00,3736.00              1877.30,3702.92 1887.84,3648.14 1893.57,3614.00              1893.57,3614.00 1916.54,3480.00 1916.54,3480.00              1916.54,3480.00 1939.58,3355.00 1939.58,3355.00              1939.58,3355.00 1956.20,3272.58 1956.20,3272.58              1956.20,3272.58 1958.68,3260.00 1958.68,3260.00              1958.68,3260.00 1961.08,3252.00 1961.08,3252.00              1961.08,3252.00 1973.21,3207.00 1973.21,3207.00              1973.21,3207.00 1976.81,3197.00 1976.81,3197.00              1976.81,3197.00 1988.49,3160.00 1988.49,3160.00              1999.27,3125.66 2011.70,3085.47 2026.62,3053.00              2026.62,3053.00 2052.87,3002.00 2052.87,3002.00              2052.87,3002.00 2073.19,2969.00 2073.19,2969.00              2094.28,2934.63 2116.04,2901.05 2140.59,2869.00              2140.59,2869.00 2186.99,2813.58 2186.99,2813.58              2186.99,2813.58 2238.42,2752.96 2238.42,2752.96              2238.42,2752.96 2291.32,2691.91 2291.32,2691.91              2291.32,2691.91 2316.66,2663.83 2316.66,2663.83              2356.30,2618.54 2390.59,2578.86 2442.00,2545.94              2442.00,2545.94 2468.00,2531.10 2468.00,2531.10              2468.00,2531.10 2476.00,2526.17 2476.00,2526.17              2476.00,2526.17 2531.00,2497.74 2531.00,2497.74              2560.02,2482.86 2588.79,2466.78 2619.00,2454.45              2658.66,2438.26 2699.77,2426.04 2741.00,2414.58              2741.00,2414.58 2780.00,2403.28 2780.00,2403.28              2780.00,2403.28 2810.00,2395.71 2810.00,2395.71              2810.00,2395.71 2817.00,2393.52 2817.00,2393.52              2817.00,2393.52 2862.72,2384.58 2862.72,2384.58              2862.72,2384.58 2893.00,2380.83 2893.00,2380.83              2893.00,2380.83 2915.00,2378.17 2915.00,2378.17              2915.00,2378.17 2937.00,2376.83 2937.00,2376.83              2937.00,2376.83 3025.00,2369.09 3025.00,2369.09              3025.00,2369.09 3051.17,2367.23 3051.17,2367.23              3051.17,2367.23 3074.00,2366.21 3074.00,2366.21 Z"
     style="stroke:none;fill:#ffffff;fill-opacity:1;filter:url(#filter1)" />
</svg>
