<?xml version="1.0" encoding="UTF-8" standalone="no"?>
<svg
   width="2380.95mm"
   height="2380.95mm"
   viewBox="0 0 6750 6750"
   version="1.1"
   id="svg1"
   sodipodi:docname="Sagittarius Arm.svg"
   inkscape:version="1.3.2 (091e20e, 2023-11-25, custom)"
   xmlns:inkscape="http://www.inkscape.org/namespaces/inkscape"
   xmlns:sodipodi="http://sodipodi.sourceforge.net/DTD/sodipodi-0.dtd"
   xmlns="http://www.w3.org/2000/svg"
   xmlns:svg="http://www.w3.org/2000/svg">
  <defs
     id="defs1">
    <filter
       inkscape:collect="always"
       style="color-interpolation-filters:sRGB"
       id="filter1"
       x="-0.1147707"
       y="-0.10226346"
       width="1.2295414"
       height="1.2045269">
      <feGaussianBlur
         inkscape:collect="always"
         stdDeviation="143.65204"
         id="feGaussianBlur1" />
    </filter>
  </defs>
  <sodipodi:namedview
     id="namedview1"
     pagecolor="#ffffff"
     bordercolor="#000000"
     borderopacity="0.25"
     inkscape:showpageshadow="2"
     inkscape:pageopacity="0.0"
     inkscape:pagecheckerboard="0"
     inkscape:deskcolor="#d1d1d1"
     inkscape:document-units="mm"
     inkscape:zoom="0.063883362"
     inkscape:cx="4382.9879"
     inkscape:cy="4703.8852"
     inkscape:window-width="1920"
     inkscape:window-height="1009"
     inkscape:window-x="-8"
     inkscape:window-y="-8"
     inkscape:window-maximized="1"
     inkscape:current-layer="svg1" />
  <path
     id="Sagittarius Arm"
     fill="none"
     stroke="black"
     stroke-width="1"
     d="M 4463.00,1337.55            C 4473.96,1336.97 4488.45,1340.50 4499.00,1343.60              4520.65,1349.95 4544.77,1361.36 4565.00,1371.48              4638.07,1408.04 4718.69,1479.16 4780.96,1533.08              4780.96,1533.08 4804.00,1553.57 4804.00,1553.57              4833.94,1579.28 4876.12,1617.10 4900.29,1647.17              4925.07,1677.98 4952.73,1725.20 4973.14,1760.00              4973.14,1760.00 5050.28,1892.00 5050.28,1892.00              5050.28,1892.00 5091.31,1962.00 5091.31,1962.00              5091.31,1962.00 5108.42,1992.00 5108.42,1992.00              5108.42,1992.00 5119.97,2013.00 5119.97,2013.00              5136.71,2047.39 5150.00,2083.56 5164.31,2119.00              5164.31,2119.00 5219.20,2255.00 5219.20,2255.00              5219.20,2255.00 5260.31,2357.00 5260.31,2357.00              5269.46,2379.66 5279.39,2402.39 5285.85,2426.00              5297.40,2468.22 5303.38,2529.14 5309.28,2574.00              5309.28,2574.00 5326.28,2701.00 5326.28,2701.00              5329.61,2726.31 5334.19,2752.40 5333.13,2778.00              5333.13,2778.00 5333.13,2797.00 5333.13,2797.00              5333.13,2797.00 5332.00,2815.00 5332.00,2815.00              5332.00,2815.00 5329.09,2852.00 5329.09,2852.00              5329.09,2852.00 5324.16,2919.00 5324.16,2919.00              5324.16,2919.00 5321.82,2953.72 5321.82,2953.72              5321.82,2953.72 5319.08,2988.00 5319.08,2988.00              5319.08,2988.00 5315.83,3037.00 5315.83,3037.00              5315.83,3037.00 5309.16,3093.00 5309.16,3093.00              5309.16,3093.00 5298.17,3195.00 5298.17,3195.00              5298.17,3195.00 5286.83,3303.00 5286.83,3303.00              5286.83,3303.00 5284.16,3324.00 5284.16,3324.00              5280.92,3354.69 5278.52,3387.23 5270.09,3417.00              5263.37,3440.75 5252.95,3463.29 5243.42,3486.00              5243.42,3486.00 5206.85,3572.00 5206.85,3572.00              5206.85,3572.00 5168.69,3661.00 5168.69,3661.00              5168.69,3661.00 5116.36,3771.00 5116.36,3771.00              5116.36,3771.00 5106.74,3792.00 5106.74,3792.00              5106.74,3792.00 5057.26,3895.00 5057.26,3895.00              5057.26,3895.00 5048.63,3914.00 5048.63,3914.00              5048.63,3914.00 5018.31,3977.00 5018.31,3977.00              5018.31,3977.00 4992.67,4029.00 4992.67,4029.00              4963.65,4080.16 4930.47,4129.15 4899.23,4179.00              4899.23,4179.00 4859.37,4242.00 4859.37,4242.00              4859.37,4242.00 4821.26,4298.00 4821.26,4298.00              4821.26,4298.00 4809.27,4312.00 4809.27,4312.00              4809.27,4312.00 4761.09,4365.00 4761.09,4365.00              4740.04,4387.60 4719.99,4411.12 4697.00,4431.83              4672.33,4454.06 4626.03,4483.13 4597.00,4502.51              4597.00,4502.51 4547.00,4535.67 4547.00,4535.67              4519.60,4554.04 4492.31,4572.99 4463.00,4588.22              4445.21,4597.45 4420.30,4605.49 4401.00,4611.74              4401.00,4611.74 4318.00,4638.93 4318.00,4638.93              4292.24,4647.48 4266.37,4656.12 4240.00,4662.63              4240.00,4662.63 4127.00,4685.80 4127.00,4685.80              4091.65,4692.86 4056.94,4700.73 4021.00,4704.17              4021.00,4704.17 3999.00,4706.04 3999.00,4706.04              3999.00,4706.04 3987.00,4706.04 3987.00,4706.04              3987.00,4706.04 3975.00,4707.00 3975.00,4707.00              3975.00,4707.00 3962.00,4707.00 3962.00,4707.00              3962.00,4707.00 3945.00,4708.00 3945.00,4708.00              3945.00,4708.00 3902.00,4709.00 3902.00,4709.00              3902.00,4709.00 3891.00,4709.91 3891.00,4709.91              3891.00,4709.91 3875.00,4709.91 3875.00,4709.91              3875.00,4709.91 3857.00,4711.00 3857.00,4711.00              3857.00,4711.00 3816.00,4712.00 3816.00,4712.00              3816.00,4712.00 3795.00,4713.00 3795.00,4713.00              3795.00,4713.00 3775.00,4713.00 3775.00,4713.00              3775.00,4713.00 3758.99,4713.72 3758.99,4713.72              3758.99,4713.72 3737.00,4713.00 3737.00,4713.00              3713.38,4712.72 3673.35,4703.82 3649.00,4699.42              3649.00,4699.42 3556.00,4681.11 3556.00,4681.11              3556.00,4681.11 3499.00,4665.74 3499.00,4665.74              3499.00,4665.74 3450.00,4652.42 3450.00,4652.42              3450.00,4652.42 3360.00,4626.97 3360.00,4626.97              3360.00,4626.97 3299.00,4605.69 3299.00,4605.69              3299.00,4605.69 3203.00,4571.69 3203.00,4571.69              3203.00,4571.69 3118.00,4541.69 3118.00,4541.69              3094.43,4533.30 3070.99,4525.11 3049.00,4512.98              3017.85,4495.78 2961.96,4453.10 2931.00,4430.49              2931.00,4430.49 2873.00,4388.43 2873.00,4388.43              2852.17,4373.53 2831.49,4358.38 2812.00,4341.73              2812.00,4341.73 2755.17,4289.32 2755.17,4289.32              2755.17,4289.32 2629.42,4171.66 2629.42,4171.66              2629.42,4171.66 2548.00,4096.17 2548.00,4096.17              2521.60,4072.29 2494.33,4049.17 2471.25,4021.99              2449.78,3996.71 2430.17,3959.29 2413.58,3930.00              2397.81,3902.16 2380.04,3874.22 2367.09,3845.00              2354.12,3815.71 2348.26,3788.57 2341.05,3757.72              2332.80,3722.44 2324.57,3691.68 2325.00,3655.00              2325.00,3655.00 2325.91,3645.00 2325.91,3645.00              2325.91,3645.00 2332.58,3598.00 2332.58,3598.00              2332.58,3598.00 2347.58,3517.00 2347.58,3517.00              2347.58,3517.00 2363.35,3437.00 2363.35,3437.00              2363.35,3437.00 2365.58,3426.00 2365.58,3426.00              2365.58,3426.00 2394.28,3330.00 2394.28,3330.00              2401.69,3305.13 2415.89,3255.63 2426.36,3234.00              2441.92,3201.83 2455.38,3185.17 2476.12,3157.00              2476.12,3157.00 2524.13,3092.00 2524.13,3092.00              2524.13,3092.00 2607.85,2978.00 2607.85,2978.00              2626.28,2952.61 2644.09,2926.30 2665.17,2903.00              2678.74,2888.00 2694.27,2874.49 2710.00,2861.80              2710.00,2861.80 2758.00,2823.55 2758.00,2823.55              2775.38,2809.65 2794.55,2794.10 2814.00,2783.31              2837.57,2770.23 2861.57,2761.99 2887.00,2753.49              2887.00,2753.49 2953.00,2731.26 2953.00,2731.26              2986.67,2720.22 3020.36,2707.03 3055.00,2699.42              3089.16,2691.92 3124.29,2690.30 3159.00,2686.83              3159.00,2686.83 3243.00,2679.00 3243.00,2679.00              3243.00,2679.00 3262.00,2678.00 3262.00,2678.00              3304.80,2677.69 3347.11,2687.54 3389.00,2695.39              3432.66,2703.57 3465.56,2709.28 3508.00,2724.57              3508.00,2724.57 3525.00,2730.08 3525.00,2730.08              3525.00,2730.08 3574.00,2747.31 3574.00,2747.31              3574.00,2747.31 3615.00,2763.36 3615.00,2763.36              3639.18,2775.06 3660.19,2789.50 3681.00,2806.39              3691.38,2814.82 3702.10,2822.89 3710.92,2833.04              3729.15,2854.01 3742.96,2883.78 3743.00,2912.00              3743.00,2912.00 3743.00,2923.00 3743.00,2923.00              3742.62,2955.23 3722.78,2989.97 3691.00,3000.10              3671.29,3006.38 3650.31,3003.64 3631.00,2997.25              3599.87,2986.95 3571.15,2958.58 3543.00,2942.43              3522.70,2930.78 3501.05,2923.99 3479.00,2916.65              3479.00,2916.65 3434.00,2901.19 3434.00,2901.19              3404.00,2891.63 3372.94,2886.16 3342.00,2880.58              3342.00,2880.58 3291.00,2871.72 3291.00,2871.72              3291.00,2871.72 3279.00,2870.04 3279.00,2870.04              3279.00,2870.04 3259.00,2870.04 3259.00,2870.04              3259.00,2870.04 3222.51,2872.53 3222.51,2872.53              3222.51,2872.53 3178.00,2876.83 3178.00,2876.83              3150.75,2879.44 3122.82,2880.43 3096.00,2886.42              3070.14,2892.21 3037.79,2904.40 3012.00,2913.00              3012.00,2913.00 2950.00,2933.92 2950.00,2933.92              2936.41,2938.62 2922.65,2942.80 2910.00,2949.86              2895.95,2957.70 2883.54,2968.21 2871.00,2978.20              2871.00,2978.20 2830.00,3010.80 2830.00,3010.80              2801.54,3033.91 2787.78,3056.41 2766.62,3085.00              2766.62,3085.00 2683.63,3198.00 2683.63,3198.00              2683.63,3198.00 2638.63,3259.00 2638.63,3259.00              2625.09,3277.05 2610.71,3294.73 2600.60,3315.00              2592.50,3331.24 2581.08,3371.75 2575.28,3391.00              2575.28,3391.00 2552.47,3467.00 2552.47,3467.00              2552.47,3467.00 2536.39,3545.00 2536.39,3545.00              2536.39,3545.00 2524.39,3610.00 2524.39,3610.00              2519.80,3634.49 2514.88,3654.81 2519.25,3680.00              2519.25,3680.00 2526.50,3712.00 2526.50,3712.00              2530.57,3729.86 2534.31,3748.03 2541.42,3765.00              2550.63,3786.95 2567.93,3814.72 2580.15,3836.00              2591.36,3855.53 2606.37,3884.58 2620.43,3901.00              2635.44,3918.54 2666.76,3945.75 2685.00,3962.17              2685.00,3962.17 2707.18,3982.92 2707.18,3982.92              2707.18,3982.92 2786.01,4056.09 2786.01,4056.09              2786.01,4056.09 2879.01,4143.09 2879.01,4143.09              2879.01,4143.09 2908.00,4170.09 2908.00,4170.09              2908.00,4170.09 2935.00,4194.92 2935.00,4194.92              2935.00,4194.92 2996.00,4241.15 2996.00,4241.15              2996.00,4241.15 3054.00,4283.43 3054.00,4283.43              3076.00,4299.16 3120.93,4333.77 3142.00,4345.11              3156.10,4352.71 3171.05,4357.59 3186.00,4363.05              3186.00,4363.05 3270.00,4392.69 3270.00,4392.69              3270.00,4392.69 3352.00,4421.69 3352.00,4421.69              3352.00,4421.69 3428.00,4447.98 3428.00,4447.98              3428.00,4447.98 3501.00,4468.42 3501.00,4468.42              3501.00,4468.42 3558.00,4483.91 3558.00,4483.91              3558.00,4483.91 3613.00,4498.34 3613.00,4498.34              3613.00,4498.34 3634.00,4502.28 3634.00,4502.28              3634.00,4502.28 3685.00,4512.08 3685.00,4512.08              3714.97,4517.14 3731.72,4521.80 3763.28,4522.39              3763.28,4522.39 3831.00,4521.00 3831.00,4521.00              3831.00,4521.00 3842.09,4520.05 3842.09,4520.05              3842.09,4520.05 3857.00,4520.05 3857.00,4520.05              3857.00,4520.05 3879.00,4518.96 3879.00,4518.96              3879.00,4518.96 3894.00,4518.96 3894.00,4518.96              3894.00,4518.96 3906.00,4518.00 3906.00,4518.00              3906.00,4518.00 3972.00,4516.00 3972.00,4516.00              3972.00,4516.00 3983.13,4515.31 3983.13,4515.31              3983.13,4515.31 4016.00,4512.71 4016.00,4512.71              4016.00,4512.71 4026.83,4510.69 4026.83,4510.69              4026.83,4510.69 4090.00,4498.60 4090.00,4498.60              4090.00,4498.60 4191.99,4477.54 4191.99,4477.54              4191.99,4477.54 4256.00,4458.19 4256.00,4458.19              4256.00,4458.19 4314.00,4439.19 4314.00,4439.19              4335.67,4432.26 4357.37,4425.81 4378.00,4416.06              4398.27,4406.48 4434.63,4380.46 4455.00,4367.08              4455.00,4367.08 4559.83,4296.42 4559.83,4296.42              4581.43,4279.35 4596.78,4261.09 4615.17,4240.99              4634.73,4219.61 4655.51,4199.08 4673.12,4176.00              4673.12,4176.00 4704.62,4129.00 4704.62,4129.00              4704.62,4129.00 4735.53,4080.00 4735.53,4080.00              4735.53,4080.00 4786.05,4000.00 4786.05,4000.00              4786.05,4000.00 4824.69,3937.00 4824.69,3937.00              4824.69,3937.00 4860.31,3864.00 4860.31,3864.00              4860.31,3864.00 4870.74,3843.00 4870.74,3843.00              4870.74,3843.00 4893.78,3794.00 4893.78,3794.00              4893.78,3794.00 4941.74,3694.00 4941.74,3694.00              4941.74,3694.00 4951.26,3673.00 4951.26,3673.00              4951.26,3673.00 4987.69,3597.00 4987.69,3597.00              4987.69,3597.00 5030.87,3497.00 5030.87,3497.00              5030.87,3497.00 5067.01,3412.00 5067.01,3412.00              5074.06,3395.05 5079.28,3385.43 5084.71,3367.00              5090.54,3347.18 5092.19,3326.46 5094.17,3306.00              5094.17,3306.00 5099.17,3260.00 5099.17,3260.00              5099.17,3260.00 5103.83,3219.00 5103.83,3219.00              5103.83,3219.00 5116.17,3102.00 5116.17,3102.00              5116.17,3102.00 5121.84,3051.00 5121.84,3051.00              5121.84,3051.00 5125.17,3010.00 5125.17,3010.00              5125.17,3010.00 5128.86,2974.99 5128.86,2974.99              5128.86,2974.99 5135.09,2888.00 5135.09,2888.00              5135.09,2888.00 5140.11,2821.17 5140.11,2821.17              5140.11,2821.17 5142.00,2796.00 5142.00,2796.00              5142.00,2796.00 5142.00,2773.00 5142.00,2773.00              5142.00,2773.00 5141.08,2761.00 5141.08,2761.00              5141.08,2761.00 5135.28,2713.00 5135.28,2713.00              5135.28,2713.00 5125.43,2639.00 5125.43,2639.00              5125.43,2639.00 5118.72,2587.00 5118.72,2587.00              5118.72,2587.00 5112.28,2541.00 5112.28,2541.00              5109.86,2522.57 5108.15,2504.08 5103.63,2486.00              5097.42,2461.20 5086.99,2437.59 5077.30,2414.00              5077.30,2414.00 5045.42,2335.00 5045.42,2335.00              5045.42,2335.00 5030.69,2298.00 5030.69,2298.00              5030.69,2298.00 4980.01,2173.00 4980.01,2173.00              4980.01,2173.00 4964.99,2135.00 4964.99,2135.00              4964.99,2135.00 4946.11,2093.00 4946.11,2093.00              4946.11,2093.00 4928.42,2061.00 4928.42,2061.00              4928.42,2061.00 4907.87,2025.00 4907.87,2025.00              4907.87,2025.00 4843.43,1912.00 4843.43,1912.00              4843.43,1912.00 4786.43,1812.00 4786.43,1812.00              4774.71,1791.56 4766.02,1774.16 4751.63,1755.00              4740.05,1739.59 4726.64,1727.35 4713.00,1713.99              4713.00,1713.99 4681.00,1682.00 4681.00,1682.00              4681.00,1682.00 4592.00,1593.99 4592.00,1593.99              4592.00,1593.99 4551.00,1553.09 4551.00,1553.09              4551.00,1553.09 4480.00,1489.28 4480.00,1489.28              4456.59,1468.91 4427.76,1446.52 4414.69,1418.00              4410.27,1408.36 4406.99,1399.12 4407.22,1388.32              4407.72,1364.25 4418.96,1348.53 4442.00,1340.54              4449.92,1337.80 4455.13,1338.32 4463.00,1337.55 Z"
     style="fill:#ffffff;fill-opacity:1;filter:url(#filter1)" />
</svg>
