<?xml version="1.0" encoding="UTF-8" standalone="no"?>
<svg
   width="2380.95mm"
   height="2380.95mm"
   viewBox="0 0 6750 6750"
   version="1.1"
   id="svg1"
   sodipodi:docname="Scutum-Centaurus Arm.svg"
   inkscape:version="1.3.2 (091e20e, 2023-11-25, custom)"
   xmlns:inkscape="http://www.inkscape.org/namespaces/inkscape"
   xmlns:sodipodi="http://sodipodi.sourceforge.net/DTD/sodipodi-0.dtd"
   xmlns="http://www.w3.org/2000/svg"
   xmlns:svg="http://www.w3.org/2000/svg">
  <defs
     id="defs1">
    <filter
       inkscape:collect="always"
       style="color-interpolation-filters:sRGB"
       id="filter1"
       x="-0.098037271"
       y="-0.12021663"
       width="1.1960745"
       height="1.2404333">
      <feGaussianBlur
         inkscape:collect="always"
         stdDeviation="156.03118"
         id="feGaussianBlur1" />
    </filter>
  </defs>
  <sodipodi:namedview
     id="namedview1"
     pagecolor="#ffffff"
     bordercolor="#000000"
     borderopacity="0.25"
     inkscape:showpageshadow="2"
     inkscape:pageopacity="0.0"
     inkscape:pagecheckerboard="0"
     inkscape:deskcolor="#d1d1d1"
     inkscape:document-units="mm"
     inkscape:zoom="0.063883362"
     inkscape:cx="3287.2409"
     inkscape:cy="4312.547"
     inkscape:window-width="1920"
     inkscape:window-height="1009"
     inkscape:window-x="-8"
     inkscape:window-y="-8"
     inkscape:window-maximized="1"
     inkscape:current-layer="svg1" />
  <path
     id="Scutum-Centaurus Arm"
     fill="none"
     stroke="black"
     stroke-width="1"
     d="M 3116.00,1243.91            C 3116.00,1243.91 3159.00,1245.09 3159.00,1245.09              3159.00,1245.09 3172.00,1246.83 3172.00,1246.83              3172.00,1246.83 3225.00,1252.72 3225.00,1252.72              3225.00,1252.72 3325.00,1264.72 3325.00,1264.72              3325.00,1264.72 3385.00,1272.27 3385.00,1272.27              3385.00,1272.27 3492.00,1291.39 3492.00,1291.39              3531.48,1298.79 3571.07,1305.37 3610.09,1314.84              3610.09,1314.84 3620.00,1317.85 3620.00,1317.85              3620.00,1317.85 3638.00,1322.56 3638.00,1322.56              3638.00,1322.56 3678.00,1335.81 3678.00,1335.81              3678.00,1335.81 3735.99,1355.50 3735.99,1355.50              3735.99,1355.50 3790.00,1375.09 3790.00,1375.09              3790.00,1375.09 3856.00,1404.70 3856.00,1404.70              3856.00,1404.70 3918.00,1434.11 3918.00,1434.11              3954.82,1453.01 3990.42,1473.46 4026.00,1494.55              4058.33,1513.71 4090.85,1532.26 4122.00,1553.34              4122.00,1553.34 4215.00,1622.13 4215.00,1622.13              4215.00,1622.13 4285.00,1675.12 4285.00,1675.12              4285.00,1675.12 4332.00,1710.58 4332.00,1710.58              4360.13,1732.46 4387.01,1752.19 4411.67,1778.32              4439.67,1807.99 4462.94,1841.63 4487.65,1874.00              4487.65,1874.00 4538.73,1942.00 4538.73,1942.00              4538.73,1942.00 4552.41,1960.00 4552.41,1960.00              4552.41,1960.00 4584.08,2009.00 4584.08,2009.00              4584.08,2009.00 4620.30,2077.00 4620.30,2077.00              4620.30,2077.00 4697.30,2225.00 4697.30,2225.00              4697.30,2225.00 4738.26,2304.00 4738.26,2304.00              4738.26,2304.00 4772.58,2373.00 4772.58,2373.00              4772.58,2373.00 4795.43,2432.00 4795.43,2432.00              4795.43,2432.00 4828.05,2523.00 4828.05,2523.00              4828.05,2523.00 4856.34,2603.00 4856.34,2603.00              4863.14,2622.65 4870.81,2644.24 4874.42,2664.72              4877.49,2682.12 4879.09,2697.40 4880.08,2715.00              4880.08,2715.00 4880.70,2724.00 4880.70,2724.00              4880.70,2724.00 4880.70,2731.00 4880.70,2731.00              4880.70,2731.00 4880.70,2767.32 4880.70,2767.32              4880.70,2767.32 4880.00,2780.00 4880.00,2780.00              4880.00,2780.00 4879.00,2870.00 4879.00,2870.00              4879.00,2870.00 4878.00,2888.00 4878.00,2888.00              4878.00,2888.00 4878.00,2902.00 4878.00,2902.00              4877.58,2949.24 4869.29,2995.68 4860.61,3042.00              4860.61,3042.00 4837.42,3167.00 4837.42,3167.00              4837.42,3167.00 4824.91,3232.58 4824.91,3232.58              4824.91,3232.58 4817.52,3267.00 4817.52,3267.00              4817.52,3267.00 4794.80,3347.00 4794.80,3347.00              4794.80,3347.00 4786.72,3372.00 4786.72,3372.00              4786.72,3372.00 4771.02,3423.00 4771.02,3423.00              4771.02,3423.00 4750.91,3483.00 4750.91,3483.00              4750.91,3483.00 4719.78,3552.00 4719.78,3552.00              4719.78,3552.00 4673.10,3649.00 4673.10,3649.00              4673.10,3649.00 4628.69,3739.00 4628.69,3739.00              4628.69,3739.00 4575.81,3829.00 4575.81,3829.00              4560.38,3854.19 4545.45,3880.50 4527.50,3904.00              4500.19,3939.75 4473.38,3962.43 4440.91,3992.30              4440.91,3992.30 4386.42,4041.88 4386.42,4041.88              4386.42,4041.88 4323.00,4098.58 4323.00,4098.58              4290.76,4125.01 4256.73,4148.97 4223.01,4173.42              4223.01,4173.42 4213.96,4180.58 4213.96,4180.58              4213.96,4180.58 4201.00,4189.48 4201.00,4189.48              4177.55,4206.92 4153.92,4224.01 4128.00,4237.70              4128.00,4237.70 4107.00,4248.52 4107.00,4248.52              4107.00,4248.52 4067.00,4264.44 4067.00,4264.44              4067.00,4264.44 4056.00,4268.91 4056.00,4268.91              4056.00,4268.91 4024.00,4280.08 4024.00,4280.08              4024.00,4280.08 3944.00,4308.27 3944.00,4308.27              3906.53,4321.27 3846.96,4344.57 3810.00,4351.54              3810.00,4351.54 3778.32,4356.55 3778.32,4356.55              3778.32,4356.55 3767.00,4357.09 3767.00,4357.09              3767.00,4357.09 3744.00,4358.91 3744.00,4358.91              3744.00,4358.91 3737.00,4358.91 3737.00,4358.91              3737.00,4358.91 3727.00,4358.91 3727.00,4358.91              3727.00,4358.91 3623.00,4358.91 3623.00,4358.91              3623.00,4358.91 3583.00,4358.91 3583.00,4358.91              3583.00,4358.91 3535.00,4358.91 3535.00,4358.91              3535.00,4358.91 3514.00,4357.97 3514.00,4357.97              3514.00,4357.97 3499.00,4357.97 3499.00,4357.97              3499.00,4357.97 3482.00,4355.97 3482.00,4355.97              3482.00,4355.97 3473.00,4355.97 3473.00,4355.97              3473.00,4355.97 3463.91,4354.34 3463.91,4354.34              3463.91,4354.34 3418.00,4347.69 3418.00,4347.69              3418.00,4347.69 3399.00,4343.04 3399.00,4343.04              3399.00,4343.04 3381.00,4339.11 3381.00,4339.11              3381.00,4339.11 3337.00,4327.01 3337.00,4327.01              3337.00,4327.01 3251.00,4303.85 3251.00,4303.85              3251.00,4303.85 3226.00,4296.73 3226.00,4296.73              3226.00,4296.73 3155.00,4277.48 3155.00,4277.48              3105.86,4264.69 3056.78,4250.80 3010.00,4230.87              3010.00,4230.87 2993.00,4224.19 2993.00,4224.19              2993.00,4224.19 2920.00,4193.17 2920.00,4193.17              2920.00,4193.17 2892.00,4180.51 2892.00,4180.51              2871.68,4169.76 2846.03,4151.46 2830.04,4135.00              2807.29,4111.59 2794.35,4093.93 2775.27,4068.00              2758.82,4045.66 2738.92,4015.92 2726.94,3991.00              2705.18,3945.69 2692.11,3896.29 2690.28,3846.00              2690.28,3846.00 2691.13,3820.42 2691.13,3820.42              2693.42,3785.61 2702.39,3736.80 2733.00,3715.45              2740.59,3710.16 2749.13,3707.07 2758.00,3704.73              2763.04,3703.41 2774.86,3702.26 2780.00,3702.44              2799.69,3703.12 2817.92,3707.77 2834.00,3719.60              2845.43,3728.01 2855.06,3742.05 2862.45,3754.01              2862.45,3754.01 2895.31,3813.00 2895.31,3813.00              2911.88,3842.80 2931.15,3864.87 2952.39,3891.00              2967.52,3909.62 2983.47,3931.51 3001.96,3946.49              3021.72,3962.49 3059.55,3975.99 3084.00,3986.42              3084.00,3986.42 3150.00,4011.91 3150.00,4011.91              3150.00,4011.91 3212.00,4029.42 3212.00,4029.42              3212.00,4029.42 3329.00,4061.28 3329.00,4061.28              3329.00,4061.28 3419.00,4085.91 3419.00,4085.91              3436.41,4090.84 3463.74,4098.84 3481.00,4101.56              3481.00,4101.56 3502.00,4104.03 3502.00,4104.03              3502.00,4104.03 3516.00,4104.03 3516.00,4104.03              3516.00,4104.03 3526.00,4105.00 3526.00,4105.00              3526.00,4105.00 3576.00,4105.00 3576.00,4105.00              3576.00,4105.00 3718.00,4105.00 3718.00,4105.00              3718.00,4105.00 3731.17,4104.14 3731.17,4104.14              3770.55,4101.84 3795.60,4091.36 3832.00,4078.05              3832.00,4078.05 3865.00,4066.43 3865.00,4066.43              3865.00,4066.43 3938.00,4040.69 3938.00,4040.69              3960.99,4032.51 3979.78,4026.64 4002.00,4015.56              4026.60,4003.31 4047.69,3985.79 4070.00,3970.03              4070.00,3970.03 4121.00,3932.54 4121.00,3932.54              4121.00,3932.54 4147.72,3912.66 4147.72,3912.66              4147.72,3912.66 4199.00,3868.07 4199.00,3868.07              4199.00,3868.07 4279.00,3795.09 4279.00,3795.09              4279.00,3795.09 4291.00,3784.63 4291.00,3784.63              4302.95,3773.47 4314.27,3761.67 4324.42,3748.83              4337.52,3732.26 4351.41,3708.40 4362.45,3690.00              4362.45,3690.00 4402.52,3622.00 4402.52,3622.00              4402.52,3622.00 4423.19,3582.00 4423.19,3582.00              4423.19,3582.00 4439.26,3548.00 4439.26,3548.00              4439.26,3548.00 4478.80,3466.00 4478.80,3466.00              4478.80,3466.00 4508.55,3403.00 4508.55,3403.00              4508.55,3403.00 4528.97,3346.00 4528.97,3346.00              4528.97,3346.00 4540.74,3307.00 4540.74,3307.00              4552.79,3269.42 4564.74,3231.52 4573.50,3193.00              4573.50,3193.00 4587.42,3121.00 4587.42,3121.00              4587.42,3121.00 4610.61,2996.00 4610.61,2996.00              4610.61,2996.00 4616.71,2964.00 4616.71,2964.00              4616.71,2964.00 4618.32,2951.00 4618.32,2951.00              4618.32,2951.00 4619.83,2944.00 4619.83,2944.00              4619.83,2944.00 4622.17,2920.00 4622.17,2920.00              4622.17,2920.00 4624.00,2897.00 4624.00,2897.00              4624.00,2897.00 4626.00,2781.00 4626.00,2781.00              4626.00,2781.00 4626.99,2752.00 4626.99,2752.00              4626.99,2752.00 4626.00,2736.00 4626.00,2736.00              4625.98,2727.52 4625.34,2728.41 4624.28,2721.00              4621.53,2701.61 4616.21,2686.29 4609.69,2668.00              4609.69,2668.00 4575.69,2573.00 4575.69,2573.00              4575.69,2573.00 4543.55,2485.00 4543.55,2485.00              4543.55,2485.00 4532.83,2461.00 4532.83,2461.00              4532.83,2461.00 4499.31,2396.00 4499.31,2396.00              4499.31,2396.00 4451.94,2305.00 4451.94,2305.00              4451.94,2305.00 4402.11,2209.00 4402.11,2209.00              4389.39,2184.23 4377.24,2158.67 4362.58,2135.00              4338.50,2096.13 4309.46,2060.39 4281.90,2024.00              4262.32,1998.15 4244.01,1970.79 4220.56,1948.20              4203.47,1931.73 4183.93,1917.78 4165.00,1903.53              4165.00,1903.53 4076.00,1836.35 4076.00,1836.35              4076.00,1836.35 4036.00,1806.12 4036.00,1806.12              4036.00,1806.12 3970.00,1757.93 3970.00,1757.93              3970.00,1757.93 3905.00,1718.60 3905.00,1718.60              3871.52,1698.50 3837.77,1679.08 3803.00,1661.26              3803.00,1661.26 3758.00,1639.70 3758.00,1639.70              3758.00,1639.70 3707.00,1616.42 3707.00,1616.42              3679.69,1604.96 3652.00,1595.54 3624.00,1586.00              3624.00,1586.00 3574.00,1569.20 3574.00,1569.20              3540.80,1559.05 3507.06,1552.77 3473.00,1546.39              3473.00,1546.39 3381.00,1529.54 3381.00,1529.54              3327.02,1519.81 3272.48,1514.19 3218.00,1507.85              3218.00,1507.85 3156.00,1500.17 3156.00,1500.17              3156.00,1500.17 3120.57,1498.67 3120.57,1498.67              3120.57,1498.67 3111.00,1498.09 3111.00,1498.09              3111.00,1498.09 3012.00,1506.83 3012.00,1506.83              3012.00,1506.83 2979.00,1509.09 2979.00,1509.09              2979.00,1509.09 2946.72,1511.84 2946.72,1511.84              2946.72,1511.84 2921.00,1513.91 2921.00,1513.91              2921.00,1513.91 2864.00,1517.09 2864.00,1517.09              2864.00,1517.09 2830.00,1519.09 2830.00,1519.09              2830.00,1519.09 2801.00,1521.00 2801.00,1521.00              2801.00,1521.00 2791.00,1521.91 2791.00,1521.91              2791.00,1521.91 2766.00,1523.09 2766.00,1523.09              2766.00,1523.09 2756.00,1524.00 2756.00,1524.00              2756.00,1524.00 2728.00,1525.85 2728.00,1525.85              2703.62,1527.47 2679.14,1528.85 2655.00,1533.08              2655.00,1533.08 2600.00,1544.58 2600.00,1544.58              2600.00,1544.58 2489.00,1568.79 2489.00,1568.79              2442.48,1578.68 2395.67,1588.07 2350.00,1601.42              2350.00,1601.42 2298.00,1618.66 2298.00,1618.66              2298.00,1618.66 2222.00,1644.49 2222.00,1644.49              2222.00,1644.49 2163.00,1664.66 2163.00,1664.66              2139.00,1672.99 2115.23,1681.19 2092.00,1691.58              2092.00,1691.58 2054.00,1710.74 2054.00,1710.74              2054.00,1710.74 1993.00,1742.70 1993.00,1742.70              1993.00,1742.70 1926.00,1777.89 1926.00,1777.89              1926.00,1777.89 1866.00,1811.23 1866.00,1811.23              1836.52,1829.70 1808.89,1850.91 1780.96,1871.58              1780.96,1871.58 1770.00,1879.15 1770.00,1879.15              1770.00,1879.15 1705.00,1928.71 1705.00,1928.71              1705.00,1928.71 1616.00,2002.75 1616.00,2002.75              1588.10,2026.23 1567.36,2041.70 1542.75,2069.58              1542.75,2069.58 1502.57,2123.00 1502.57,2123.00              1502.57,2123.00 1474.85,2161.00 1474.85,2161.00              1474.85,2161.00 1430.80,2224.00 1430.80,2224.00              1430.80,2224.00 1391.58,2287.00 1391.58,2287.00              1391.58,2287.00 1356.78,2344.00 1356.78,2344.00              1356.78,2344.00 1347.44,2360.00 1347.44,2360.00              1347.44,2360.00 1328.99,2400.00 1328.99,2400.00              1304.03,2455.45 1281.23,2512.28 1245.49,2561.96              1230.58,2582.69 1206.83,2604.68 1186.00,2619.42              1171.77,2629.49 1157.85,2638.64 1141.00,2643.80              1116.92,2651.16 1090.08,2647.45 1074.30,2625.99              1069.89,2619.99 1066.99,2613.06 1064.81,2606.00              1060.99,2593.62 1060.91,2585.70 1061.00,2573.00              1061.27,2535.49 1076.10,2494.23 1088.33,2459.00              1088.33,2459.00 1106.76,2408.00 1106.76,2408.00              1106.76,2408.00 1145.45,2294.00 1145.45,2294.00              1165.27,2232.19 1185.80,2178.00 1215.42,2120.00              1240.76,2070.40 1271.02,2023.61 1302.46,1977.72              1324.86,1945.02 1347.01,1911.93 1373.13,1882.01              1401.74,1849.24 1441.36,1816.58 1475.00,1788.59              1475.00,1788.59 1541.00,1733.45 1541.00,1733.45              1541.00,1733.45 1610.00,1681.25 1610.00,1681.25              1653.44,1649.30 1696.16,1616.54 1742.17,1588.27              1742.17,1588.27 1794.00,1559.70 1794.00,1559.70              1794.00,1559.70 1881.00,1514.06 1881.00,1514.06              1918.41,1494.58 1955.39,1473.32 1994.04,1456.45              2038.30,1437.11 2084.45,1423.18 2130.00,1407.31              2130.00,1407.31 2209.00,1380.31 2209.00,1380.31              2241.73,1368.89 2274.56,1357.98 2308.00,1348.74              2308.00,1348.74 2346.00,1339.51 2346.00,1339.51              2346.00,1339.51 2357.00,1337.58 2357.00,1337.58              2357.00,1337.58 2416.00,1324.58 2416.00,1324.58              2416.00,1324.58 2533.00,1298.66 2533.00,1298.66              2533.00,1298.66 2549.00,1295.58 2549.00,1295.58              2549.00,1295.58 2626.96,1279.79 2626.96,1279.79              2626.96,1279.79 2638.01,1278.86 2638.01,1278.86              2638.01,1278.86 2675.00,1274.26 2675.00,1274.26              2675.00,1274.26 2683.00,1274.26 2683.00,1274.26              2683.00,1274.26 2694.00,1273.09 2694.00,1273.09              2694.00,1273.09 2717.00,1271.92 2717.00,1271.92              2717.00,1271.92 2739.00,1270.15 2739.00,1270.15              2739.00,1270.15 2796.99,1266.92 2796.99,1266.92              2796.99,1266.92 2821.09,1265.09 2821.09,1265.09              2821.09,1265.09 2846.00,1263.91 2846.00,1263.91              2846.00,1263.91 2872.00,1262.00 2872.00,1262.00              2872.00,1262.00 2909.00,1260.00 2909.00,1260.00              2909.00,1260.00 2920.00,1259.09 2920.00,1259.09              2920.00,1259.09 2943.00,1258.00 2943.00,1258.00              2943.00,1258.00 2954.09,1257.09 2954.09,1257.09              2954.09,1257.09 3008.00,1252.17 3008.00,1252.17              3008.00,1252.17 3053.00,1247.83 3053.00,1247.83              3053.00,1247.83 3064.00,1246.00 3064.00,1246.00              3064.00,1246.00 3073.00,1246.00 3073.00,1246.00              3073.00,1246.00 3096.00,1243.91 3096.00,1243.91              3096.00,1243.91 3116.00,1243.91 3116.00,1243.91 Z"
     style="stroke:none;fill:#ffffff;fill-opacity:1;filter:url(#filter1)" />
</svg>
